  0
SECTION
  2
HEADER
  9
$ACADVER
  1
AC1009
  9
$INSBASE
 10
0.0
 20
0.0
 30
0.0
  9
$EXTMIN
 10
0.0
 20
0.0
 30
0.0
  9
$EXTMAX
 10
0.0
 20
0.0
 30
0.0
  0
ENDSEC
  0
SECTION
  2
TABLES
  0
TABLE
  2
VPORT
 70
0
  0
ENDTAB
  0
TABLE
  2
LTYPE
 70
1
  0
LTYPE
  2
CONTINUOUS
 70
0
  3
Solid line
 72
65
 73
0
 40
0.0
  0
ENDTAB
  0
TABLE
  2
LAYER
 70
1
  0
LAYER
  2
0
 70
64
 62
7
  6
continuous
  0
ENDTAB
  0
TABLE
  2
STYLE
 70
1
  0
STYLE
  2
STANDARD
 70
0
 40
0
 41
1.0
 50
0.0
 71
0
 42
1
 3
ARIAL.TTF
 4

  0
ENDTAB
  0
TABLE
  2
VIEW
 70
0
  0
ENDTAB
  0
ENDSEC
  0
SECTION
  2
BLOCKS
  0
BLOCK
  8
0
  2
POLARPATTERN001
 70
0
 10
0.0
 20
0.0
 30
0.0
  3
POLARPATTERN001
  0
ARC
  8
0
 62
0
 10
40.0
 20
75.0
 30
0.0
 40
5.000000000000007
 50
-118.0724869358529
 51
-36.869897645844155
  0
ARC
  8
0
 62
0
 10
0.0
 20
0.0
 30
0.0
 40
80.0
 50
61.927513064147035
 51
118.07248693585296
  0
ARC
  8
0
 62
0
 10
60.0
 20
60.0
 30
0.0
 40
20.0
 50
-53.130102354155895
 51
143.13010235415598
  0
ARC
  8
0
 62
0
 10
0.0
 20
0.0
 30
0.0
 40
80.0
 50
28.072486935852947
 51
61.927513064147035
  0
ARC
  8
0
 62
0
 10
75.00000000000001
 20
40.0
 30
0.0
 40
5.000000000000012
 50
126.86989764584412
 51
-151.92751306414704
  0
CIRCLE
  8
0
 62
0
 10
67.0
 20
67.0
 30
0.0
 40
2.1
  0
ARC
  8
0
 62
0
 10
-40.0
 20
75.00000000000001
 30
0.0
 40
5.000000000000012
 50
-143.1301023541559
 51
-61.927513064147035
  0
ARC
  8
0
 62
0
 10
0.0
 20
0.0
 30
0.0
 40
80.0
 50
118.07248693585296
 51
151.92751306414706
  0
ARC
  8
0
 62
0
 10
0.0
 20
0.0
 30
0.0
 40
80.0
 50
-28.072486935852975
 51
28.072486935852947
  0
ARC
  8
0
 62
0
 10
0.0
 20
0.0
 30
0.0
 40
80.0
 50
151.92751306414706
 51
-151.9275130641471
  0
ARC
  8
0
 62
0
 10
0.0
 20
0.0
 30
0.0
 40
80.0
 50
-61.92751306414711
 51
-28.072486935852975
  0
ARC
  8
0
 62
0
 10
0.0
 20
0.0
 30
0.0
 40
80.0
 50
-151.9275130641471
 51
-118.07248693585296
  0
ARC
  8
0
 62
0
 10
0.0
 20
0.0
 30
0.0
 40
80.0
 50
-118.07248693585296
 51
-61.92751306414711
  0
CIRCLE
  8
0
 62
0
 10
55.7279
 20
30.272055877330654
 30
0.0
 40
2.1
  0
CIRCLE
  8
0
 62
0
 10
-58.73909236273089
 20
15.73909236273088
 30
0.0
 40
6.000000000000002
  0
CIRCLE
  8
0
 62
0
 10
-54.08031941455038
 20
33.12574916089351
 30
0.0
 40
2.1000000000000005
  0
CIRCLE
  8
0
 62
0
 10
-63.3978653109136
 20
-1.6475644354454357
 30
0.0
 40
2.1000000000000005
  0
CIRCLE
  8
0
 62
0
 10
-22.5
 20
0.0
 30
0.0
 40
2.55
  0
CIRCLE
  8
0
 62
0
 10
22.5
 20
0.0
 30
0.0
 40
2.55
  0
ARC
  8
0
 62
0
 10
0.0
 20
0.0
 30
0.0
 40
5.1
 50
-0.0
 51
90.00000000000003
  0
ARC
  8
0
 62
0
 10
0.0
 20
0.0
 30
0.0
 40
5.1
 50
-90.00000000000001
 51
-0.0
  0
ARC
  8
0
 62
0
 10
0.0
 20
0.0
 30
0.0
 40
5.1
 50
90.00000000000003
 51
180.0
  0
ARC
  8
0
 62
0
 10
0.0
 20
0.0
 30
0.0
 40
5.1
 50
180.0
 51
-90.00000000000001
  0
CIRCLE
  8
0
 62
0
 10
15.739092362730839
 20
-58.73909236273085
 30
0.0
 40
5.999999999999998
  0
CIRCLE
  8
0
 62
0
 10
-1.6475805854496524
 20
-63.39780503822412
 30
0.0
 40
2.099999999999999
  0
CIRCLE
  8
0
 62
0
 10
33.12576531092428
 20
-54.08037968723266
 30
0.0
 40
2.099999999999999
  0
CIRCLE
  8
0
 62
0
 10
43.0
 20
43.0
 30
0.0
 40
6.0
  0
CIRCLE
  8
0
 62
0
 10
30.272099999989265
 20
55.72794412267811
 30
0.0
 40
2.1
  0
ARC
  8
0
 62
0
 10
-60.0
 20
60.0
 30
0.0
 40
20.0
 50
36.86989764584411
 51
-126.86989764584402
  0
ARC
  8
0
 62
0
 10
-75.0
 20
40.0
 30
0.0
 40
5.000000000000007
 50
-28.072486935852908
 51
53.13010235415586
  0
CIRCLE
  8
0
 62
0
 10
-67.0
 20
67.0
 30
0.0
 40
2.1
  0
ARC
  8
0
 62
0
 10
40.0
 20
-75.00000000000001
 30
0.0
 40
5.000000000000012
 50
36.869897645844105
 51
118.07248693585296
  0
ARC
  8
0
 62
0
 10
60.0
 20
-60.0
 30
0.0
 40
20.0
 50
-143.1301023541559
 51
53.13010235415599
  0
ARC
  8
0
 62
0
 10
75.0
 20
-40.0
 30
0.0
 40
5.000000000000007
 50
151.9275130641471
 51
-126.86989764584415
  0
CIRCLE
  8
0
 62
0
 10
67.0
 20
-67.0
 30
0.0
 40
2.1
  0
ARC
  8
0
 62
0
 10
-75.00000000000001
 20
-40.0
 30
0.0
 40
5.000000000000012
 50
-53.1301023541559
 51
28.07248693585296
  0
ARC
  8
0
 62
0
 10
-60.0
 20
-60.0
 30
0.0
 40
20.0
 50
126.86989764584412
 51
-36.86989764584401
  0
ARC
  8
0
 62
0
 10
-40.0
 20
-75.0
 30
0.0
 40
5.000000000000007
 50
61.92751306414711
 51
143.13010235415587
  0
CIRCLE
  8
0
 62
0
 10
-67.0
 20
-67.0
 30
0.0
 40
2.1
  0
ENDBLK
  0
ENDSEC
  0
SECTION
  2
ENTITIES
  0
INSERT
  2
POLARPATTERN001
  8
0
 62
0
 10
0.0
 20
0.0
 30
0.0
  0
ENDSEC
  0
EOF
