  0
SECTION
  2
HEADER
  9
$ACADVER
  1
AC1009
  9
$INSBASE
 10
0.0
 20
0.0
 30
0.0
  9
$EXTMIN
 10
0.0
 20
0.0
 30
0.0
  9
$EXTMAX
 10
0.0
 20
0.0
 30
0.0
  0
ENDSEC
  0
SECTION
  2
TABLES
  0
TABLE
  2
VPORT
 70
0
  0
ENDTAB
  0
TABLE
  2
LTYPE
 70
1
  0
LTYPE
  2
CONTINUOUS
 70
0
  3
Solid line
 72
65
 73
0
 40
0.0
  0
ENDTAB
  0
TABLE
  2
LAYER
 70
1
  0
LAYER
  2
0
 70
64
 62
7
  6
continuous
  0
ENDTAB
  0
TABLE
  2
STYLE
 70
1
  0
STYLE
  2
STANDARD
 70
0
 40
0
 41
1.0
 50
0.0
 71
0
 42
1
 3
ARIAL.TTF
 4

  0
ENDTAB
  0
TABLE
  2
VIEW
 70
0
  0
ENDTAB
  0
ENDSEC
  0
SECTION
  2
BLOCKS
  0
BLOCK
  8
0
  2
POCKET001
 70
0
 10
0.0
 20
0.0
 30
0.0
  3
POCKET001
  0
LINE
  8
0
 62
0
 10
18.872599999999995
 20
-0.9890710552971621
 30
0.0
 11
18.842906489130968
 21
-1.2715859396304947
 31
0.0
  0
LINE
  8
0
 62
0
 10
18.8726
 20
-0.989071055297161
 30
0.0
 11
18.8726
 21
-0.7050000000000001
 31
0.0
  0
ARC
  8
0
 62
0
 10
18.693728204825728
 20
-1.2559066701403465
 30
0.0
 40
0.14999999999999997
 50
-95.9999999999993
 51
-6.000000000000026
  0
ARC
  8
0
 62
0
 10
18.7226
 20
-0.7050000000000001
 30
0.0
 40
0.15
 50
0.0
 51
90.0
  0
ARC
  8
0
 62
0
 10
18.62003563822203
 20
-1.9570446063749791
 30
0.0
 40
0.5549999999999999
 50
84.00000000000009
 51
-95.99999999999993
  0
ARC
  8
0
 62
0
 10
18.7226
 20
0.0
 30
0.0
 40
0.555
 50
90.0
 51
-90.0
  0
ARC
  8
0
 62
0
 10
18.546343071618335
 20
-2.658182542609612
 30
0.0
 40
0.14999999999999997
 50
-6.000000000000026
 51
83.99999999999936
  0
ARC
  8
0
 62
0
 10
18.7226
 20
0.7050000000000001
 30
0.0
 40
0.15
 50
-90.0
 51
0.0
  0
LINE
  8
0
 62
0
 10
18.665827845054544
 20
-2.9563766964331233
 30
0.0
 11
18.695521355923574
 21
-2.67386181209976
 31
0.0
  0
LINE
  8
0
 62
0
 10
18.8726
 20
0.989071055297112
 30
0.0
 11
18.8726
 21
0.7050000000000001
 31
0.0
  0
LINE
  8
0
 62
0
 10
18.66582784505455
 20
-2.9563766964331273
 30
0.0
 11
18.60676615163534
 21
-3.2342401176099225
 31
0.0
  0
LINE
  8
0
 62
0
 10
18.87259999999999
 20
0.9890710552971093
 30
0.0
 11
18.84290648913096
 21
1.2715859396304756
 31
0.0
  0
ARC
  8
0
 62
0
 10
18.46004401152527
 20
-3.2030533639872596
 30
0.0
 40
0.15000000000000002
 50
-101.99999999999963
 51
-11.999999999999925
  0
ARC
  8
0
 62
0
 10
18.693728204825725
 20
1.2559066701403276
 30
0.0
 40
0.14999999999999994
 50
6.000000000000026
 51
95.9999999999993
  0
ARC
  8
0
 62
0
 10
18.31346626949875
 20
-3.8926474225045924
 30
0.0
 40
0.5550000000000002
 50
78.00000000000003
 51
-101.99999999999997
  0
ARC
  8
0
 62
0
 10
18.620035638222028
 20
1.9570446063749602
 30
0.0
 40
0.5549999999999998
 50
95.99999999999993
 51
-84.00000000000007
  0
ARC
  8
0
 62
0
 10
18.16688852747223
 20
-4.582241481021925
 30
0.0
 40
0.15000000000000002
 50
-11.999999999999925
 51
78.00000000000038
  0
ARC
  8
0
 62
0
 10
18.54634307161833
 20
2.658182542609593
 30
0.0
 40
0.14999999999999994
 50
-83.99999999999933
 51
6.000000000000026
  0
LINE
  8
0
 62
0
 10
18.254548974163097
 20
-4.891291655821366
 30
0.0
 11
18.313610667582303
 21
-4.613428234644589
 31
0.0
  0
LINE
  8
0
 62
0
 10
18.665827845054544
 20
2.9563766964331
 30
0.0
 11
18.695521355923574
 21
2.673861812099741
 31
0.0
  0
LINE
  8
0
 62
0
 10
18.2545489741631
 20
-4.891291655821354
 30
0.0
 11
18.16676619046626
 21
-5.16145928405254
 31
0.0
  0
LINE
  8
0
 62
0
 10
18.665827845054555
 20
2.9563766964331086
 30
0.0
 11
18.606766151635345
 21
3.2342401176099047
 31
0.0
  0
ARC
  8
0
 62
0
 10
18.024107713021987
 20
-5.115106734896299
 30
0.0
 40
0.15000000000000002
 50
-108.00000000000023
 51
-18.00000000000013
  0
ARC
  8
0
 62
0
 10
18.460044011525277
 20
3.2030533639872414
 30
0.0
 40
0.15000000000000002
 50
11.999999999999925
 51
101.9999999999996
  0
ARC
  8
0
 62
0
 10
17.80625073198765
 20
-5.785601578884383
 30
0.0
 40
0.5550000000000002
 50
72.0000000000001
 51
-107.9999999999999
  0
ARC
  8
0
 62
0
 10
18.313466269498758
 20
3.8926474225045746
 30
0.0
 40
0.5550000000000002
 50
101.99999999999997
 51
-78.00000000000003
  0
ARC
  8
0
 62
0
 10
17.588393750953312
 20
-6.456096422872467
 30
0.0
 40
0.15000000000000002
 50
-18.00000000000013
 51
71.99999999999977
  0
ARC
  8
0
 62
0
 10
18.16688852747224
 20
4.582241481021907
 30
0.0
 40
0.15000000000000002
 50
-78.00000000000038
 51
11.999999999999925
  0
LINE
  8
0
 62
0
 10
17.643269444700753
 20
-6.772616600259863
 30
0.0
 11
17.731052228397584
 21
-6.502448972028708
 31
0.0
  0
LINE
  8
0
 62
0
 10
18.254548974163097
 20
4.891291655821371
 30
0.0
 11
18.313610667582306
 21
4.613428234644571
 31
0.0
  0
LINE
  8
0
 62
0
 10
17.643269444700753
 20
-6.77261660025987
 30
0.0
 11
17.527727337274186
 21
-7.032128422474326
 31
0.0
  0
LINE
  8
0
 62
0
 10
18.2545489741631
 20
4.891291655821359
 30
0.0
 11
18.16676619046626
 21
5.16145928405254
 31
0.0
  0
ARC
  8
0
 62
0
 10
17.390695518627798
 20
-6.9711179260129565
 30
0.0
 40
0.15000000000000002
 50
-114.00000000000038
 51
-24.000000000000348
  0
ARC
  8
0
 62
0
 10
18.024107713021987
 20
5.115106734896299
 30
0.0
 40
0.15000000000000002
 50
18.00000000000013
 51
108.00000000000023
  0
ARC
  8
0
 62
0
 10
17.103946185259357
 20
-7.61516747365099
 30
0.0
 40
0.5550000000000002
 50
65.99999999999994
 51
-114.00000000000006
  0
ARC
  8
0
 62
0
 10
17.80625073198765
 20
5.785601578884383
 30
0.0
 40
0.5550000000000002
 50
107.9999999999999
 51
-72.0000000000001
  0
ARC
  8
0
 62
0
 10
16.817196851890916
 20
-8.259217021289023
 30
0.0
 40
0.15000000000000002
 50
-24.000000000000036
 51
65.99999999999962
  0
ARC
  8
0
 62
0
 10
17.588393750953312
 20
6.456096422872467
 30
0.0
 40
0.15000000000000002
 50
-71.99999999999977
 51
18.00000000000013
  0
LINE
  8
0
 62
0
 10
16.838686563110763
 20
-8.579739339964812
 30
0.0
 11
16.95422867053731
 21
-8.320227517750393
 31
0.0
  0
LINE
  8
0
 62
0
 10
17.64326944470075
 20
6.772616600259874
 30
0.0
 11
17.731052228397584
 21
6.502448972028708
 31
0.0
  0
LINE
  8
0
 62
0
 10
16.83868656311075
 20
-8.57973933996481
 30
0.0
 11
16.696651035462185
 21
-8.825752090331973
 31
0.0
  0
LINE
  8
0
 62
0
 10
17.64326944470074
 20
6.772616600259883
 30
0.0
 11
17.527727337274186
 21
7.032128422474308
 31
0.0
  0
ARC
  8
0
 62
0
 10
16.56674722489452
 20
-8.750752090331975
 30
0.0
 40
0.14999999999999994
 50
-119.99999999999991
 51
-29.999999999999915
  0
ARC
  8
0
 62
0
 10
17.3906955186278
 20
6.97111792601294
 30
0.0
 40
0.15
 50
24.000000000000348
 51
114.00000000000038
  0
ARC
  8
0
 62
0
 10
16.21424722489452
 20
-9.361300000000004
 30
0.0
 40
0.5549999999999998
 50
60.00000000000001
 51
-119.99999999999999
  0
ARC
  8
0
 62
0
 10
17.10394618525936
 20
7.615167473650973
 30
0.0
 40
0.555
 50
114.00000000000001
 51
-65.99999999999994
  0
ARC
  8
0
 62
0
 10
15.861747224894522
 20
-9.971847909668032
 30
0.0
 40
0.14999999999999994
 50
-29.999999999999915
 51
59.99999999999951
  0
ARC
  8
0
 62
0
 10
16.81719685189092
 20
8.259217021289007
 30
0.0
 40
0.15
 50
-65.99999999999962
 51
24.000000000000036
  0
LINE
  8
0
 62
0
 10
15.849615507813638
 20
-10.292860660035174
 30
0.0
 11
15.991651035462189
 21
-10.046847909668033
 31
0.0
  0
LINE
  8
0
 62
0
 10
16.838686563110755
 20
8.579739339964812
 30
0.0
 11
16.95422867053731
 21
8.320227517750377
 31
0.0
  0
LINE
  8
0
 62
0
 10
15.849615507813642
 20
-10.292860660035176
 30
0.0
 11
15.68264273090682
 21
-10.522678971380591
 31
0.0
  0
LINE
  8
0
 62
0
 10
16.83868656311076
 20
8.579739339964801
 30
0.0
 11
16.696651035462203
 21
8.825752090331951
 31
0.0
  0
ARC
  8
0
 62
0
 10
15.56129018175058
 20
-10.434511183536719
 30
0.0
 40
0.14999999999999997
 50
-125.99999999999984
 51
-35.99999999999984
  0
ARC
  8
0
 62
0
 10
16.566747224894538
 20
8.750752090331952
 30
0.0
 40
0.14999999999999997
 50
29.999999999999915
 51
119.99999999999956
  0
ARC
  8
0
 62
0
 10
15.146901578884387
 20
-11.004868164571057
 30
0.0
 40
0.5549999999999999
 50
54.00000000000003
 51
-125.99999999999997
  0
ARC
  8
0
 62
0
 10
16.21424722489454
 20
9.361299999999982
 30
0.0
 40
0.5549999999999999
 50
119.99999999999999
 51
-60.00000000000001
  0
ARC
  8
0
 62
0
 10
14.732512976018194
 20
-11.575225145605396
 30
0.0
 40
0.14999999999999997
 50
-35.99999999999984
 51
54.00000000000016
  0
ARC
  8
0
 62
0
 10
15.861747224894541
 20
9.971847909668012
 30
0.0
 40
0.14999999999999997
 50
-60.00000000000011
 51
29.999999999999915
  0
LINE
  8
0
 62
0
 10
14.68689274826762
 20
-11.89321124479467
 30
0.0
 11
14.853865525174434
 21
-11.663392933449265
 31
0.0
  0
LINE
  8
0
 62
0
 10
15.849615507813642
 20
10.292860660035178
 30
0.0
 11
15.991651035462205
 21
10.046847909668012
 31
0.0
  0
LINE
  8
0
 62
0
 10
14.686892748267624
 20
-11.893211244794667
 30
0.0
 11
14.496812110787662
 21
-12.104317179606621
 31
0.0
  0
LINE
  8
0
 62
0
 10
15.849615507813645
 20
10.292860660035185
 30
0.0
 11
15.682642730906833
 21
10.522678971380587
 31
0.0
  0
ARC
  8
0
 62
0
 10
14.385340386966053
 20
-12.003947588652792
 30
0.0
 40
0.14999999999999997
 50
-132.00000000000009
 51
-42.000000000000085
  0
ARC
  8
0
 62
0
 10
15.561290181750591
 20
10.434511183536717
 30
0.0
 40
0.15000000000000002
 50
35.99999999999984
 51
125.99999999999984
  0
ARC
  8
0
 62
0
 10
13.913603309483058
 20
-12.527864690614356
 30
0.0
 40
0.5549999999999999
 50
47.99999999999994
 51
-132.00000000000006
  0
ARC
  8
0
 62
0
 10
15.146901578884398
 20
11.004868164571056
 30
0.0
 40
0.5550000000000002
 50
125.99999999999997
 51
-54.00000000000003
  0
ARC
  8
0
 62
0
 10
13.441866232000063
 20
-13.05178179257592
 30
0.0
 40
0.14999999999999997
 50
-42.000000000000085
 51
47.999999999999915
  0
ARC
  8
0
 62
0
 10
14.732512976018205
 20
11.575225145605394
 30
0.0
 40
0.15000000000000002
 50
-54.00000000000016
 51
35.99999999999984
  0
LINE
  8
0
 62
0
 10
13.363257318341706
 20
-13.363257318341706
 30
0.0
 11
13.553337955821672
 21
-13.152151383529747
 31
0.0
  0
LINE
  8
0
 62
0
 10
14.686892748267644
 20
11.893211244794655
 30
0.0
 11
14.853865525174447
 21
11.663392933449265
 31
0.0
  0
LINE
  8
0
 62
0
 10
13.363257318341706
 20
-13.363257318341706
 30
0.0
 11
13.152151383529747
 21
-13.553337955821672
 31
0.0
  0
LINE
  8
0
 62
0
 10
14.686892748267645
 20
11.893211244794655
 30
0.0
 11
14.496812110787676
 21
12.10431717960662
 31
0.0
  0
ARC
  8
0
 62
0
 10
13.05178179257592
 20
-13.441866232000063
 30
0.0
 40
0.14999999999999997
 50
-137.99999999999991
 51
-47.999999999999915
  0
ARC
  8
0
 62
0
 10
14.385340386966071
 20
12.00394758865279
 30
0.0
 40
0.15000000000000002
 50
42.000000000000085
 51
132.00000000000009
  0
ARC
  8
0
 62
0
 10
12.527864690614356
 20
-13.913603309483058
 30
0.0
 40
0.5549999999999999
 50
42.000000000000064
 51
-137.99999999999994
  0
ARC
  8
0
 62
0
 10
13.913603309483076
 20
12.527864690614354
 30
0.0
 40
0.5550000000000002
 50
131.99999999999994
 51
-48.000000000000064
  0
ARC
  8
0
 62
0
 10
12.003947588652792
 20
-14.385340386966053
 30
0.0
 40
0.14999999999999997
 50
-47.999999999999915
 51
42.000000000000085
  0
ARC
  8
0
 62
0
 10
13.44186623200008
 20
13.051781792575918
 30
0.0
 40
0.15000000000000002
 50
-47.999999999999915
 51
42.000000000000085
  0
LINE
  8
0
 62
0
 10
11.893211244794674
 20
-14.686892748267617
 30
0.0
 11
12.104317179606621
 21
-14.496812110787662
 31
0.0
  0
LINE
  8
0
 62
0
 10
13.363257318341725
 20
13.363257318341704
 30
0.0
 11
13.55333795582169
 21
13.152151383529745
 31
0.0
  0
LINE
  8
0
 62
0
 10
11.893211244794673
 20
-14.686892748267619
 30
0.0
 11
11.663392933449265
 21
-14.853865525174434
 31
0.0
  0
LINE
  8
0
 62
0
 10
13.363257318341722
 20
13.363257318341706
 30
0.0
 11
13.152151383529764
 21
13.55333795582167
 31
0.0
  0
ARC
  8
0
 62
0
 10
11.575225145605396
 20
-14.732512976018194
 30
0.0
 40
0.14999999999999997
 50
-144.00000000000017
 51
-54.00000000000016
  0
ARC
  8
0
 62
0
 10
13.051781792575937
 20
13.441866232000061
 30
0.0
 40
0.15000000000000002
 50
47.999999999999915
 51
137.99999999999991
  0
ARC
  8
0
 62
0
 10
11.004868164571057
 20
-15.146901578884387
 30
0.0
 40
0.5549999999999999
 50
35.99999999999997
 51
-144.00000000000003
  0
ARC
  8
0
 62
0
 10
12.527864690614374
 20
13.913603309483056
 30
0.0
 40
0.5550000000000002
 50
137.99999999999994
 51
-42.000000000000064
  0
ARC
  8
0
 62
0
 10
10.434511183536719
 20
-15.56129018175058
 30
0.0
 40
0.14999999999999997
 50
-54.00000000000016
 51
35.99999999999984
  0
ARC
  8
0
 62
0
 10
12.00394758865281
 20
14.385340386966051
 30
0.0
 40
0.15000000000000002
 50
-42.000000000000085
 51
47.999999999999915
  0
LINE
  8
0
 62
0
 10
10.292860660035176
 20
-15.849615507813642
 30
0.0
 11
10.522678971380591
 21
-15.68264273090682
 31
0.0
  0
LINE
  8
0
 62
0
 10
11.893211244794673
 20
14.68689274826763
 30
0.0
 11
12.104317179606635
 21
14.49681211078766
 31
0.0
  0
LINE
  8
0
 62
0
 10
10.29286066003518
 20
-15.849615507813649
 30
0.0
 11
10.04684790966803
 21
-15.991651035462205
 31
0.0
  0
LINE
  8
0
 62
0
 10
11.893211244794667
 20
14.686892748267622
 30
0.0
 11
11.663392933449265
 21
14.853865525174434
 31
0.0
  0
ARC
  8
0
 62
0
 10
9.97184790966803
 20
-15.86174722489454
 30
0.0
 40
0.15000000000000002
 50
-150.00000000000009
 51
-60.00000000000011
  0
ARC
  8
0
 62
0
 10
11.575225145605396
 20
14.732512976018194
 30
0.0
 40
0.14999999999999997
 50
54.00000000000016
 51
144.00000000000017
  0
ARC
  8
0
 62
0
 10
9.3613
 20
-16.21424722489454
 30
0.0
 40
0.5550000000000002
 50
29.999999999999993
 51
-150.0
  0
ARC
  8
0
 62
0
 10
11.004868164571057
 20
15.146901578884387
 30
0.0
 40
0.5549999999999999
 50
144.00000000000003
 51
-35.99999999999997
  0
ARC
  8
0
 62
0
 10
8.75075209033197
 20
-16.566747224894538
 30
0.0
 40
0.15000000000000002
 50
-60.00000000000011
 51
29.999999999999915
  0
ARC
  8
0
 62
0
 10
10.434511183536719
 20
15.56129018175058
 30
0.0
 40
0.14999999999999997
 50
-35.99999999999984
 51
54.00000000000016
  0
LINE
  8
0
 62
0
 10
8.57973933996481
 20
-16.838686563110763
 30
0.0
 11
8.825752090331969
 21
-16.696651035462203
 31
0.0
  0
LINE
  8
0
 62
0
 10
10.2928606600352
 20
15.849615507813624
 30
0.0
 11
10.522678971380591
 21
15.68264273090682
 31
0.0
  0
LINE
  8
0
 62
0
 10
8.579739339964808
 20
-16.838686563110755
 30
0.0
 11
8.320227517750377
 21
-16.95422867053731
 31
0.0
  0
LINE
  8
0
 62
0
 10
10.292860660035199
 20
15.849615507813624
 30
0.0
 11
10.046847909668033
 21
15.991651035462189
 31
0.0
  0
ARC
  8
0
 62
0
 10
8.259217021289007
 20
-16.81719685189092
 30
0.0
 40
0.15
 50
-155.99999999999963
 51
-65.99999999999997
  0
ARC
  8
0
 62
0
 10
9.971847909668032
 20
15.861747224894522
 30
0.0
 40
0.14999999999999994
 50
60.00000000000011
 51
149.9999999999995
  0
ARC
  8
0
 62
0
 10
7.615167473650973
 20
-17.10394618525936
 30
0.0
 40
0.555
 50
24.000000000000004
 51
-155.99999999999997
  0
ARC
  8
0
 62
0
 10
9.361300000000004
 20
16.21424722489452
 30
0.0
 40
0.5549999999999998
 50
150.0
 51
-29.999999999999993
  0
ARC
  8
0
 62
0
 10
6.97111792601294
 20
-17.3906955186278
 30
0.0
 40
0.15
 50
-65.99999999999964
 51
24.00000000000038
  0
ARC
  8
0
 62
0
 10
8.750752090331975
 20
16.56674722489452
 30
0.0
 40
0.14999999999999994
 50
-29.999999999999915
 51
60.00000000000011
  0
LINE
  8
0
 62
0
 10
6.7726166002598855
 20
-17.64326944470074
 30
0.0
 11
7.032128422474308
 21
-17.527727337274186
 31
0.0
  0
LINE
  8
0
 62
0
 10
8.579739339964789
 20
16.83868656311076
 30
0.0
 11
8.825752090331973
 21
16.696651035462185
 31
0.0
  0
LINE
  8
0
 62
0
 10
6.772616600259877
 20
-17.64326944470075
 30
0.0
 11
6.502448972028708
 21
-17.731052228397584
 31
0.0
  0
LINE
  8
0
 62
0
 10
8.579739339964792
 20
16.83868656311077
 30
0.0
 11
8.320227517750393
 21
16.95422867053731
 31
0.0
  0
ARC
  8
0
 62
0
 10
6.456096422872467
 20
-17.588393750953312
 30
0.0
 40
0.15000000000000002
 50
-161.99999999999977
 51
-71.99999999999989
  0
ARC
  8
0
 62
0
 10
8.259217021289023
 20
16.817196851890916
 30
0.0
 40
0.15000000000000002
 50
65.99999999999997
 51
155.99999999999963
  0
ARC
  8
0
 62
0
 10
5.785601578884383
 20
-17.80625073198765
 30
0.0
 40
0.5550000000000002
 50
17.999999999999904
 51
-162.0000000000001
  0
ARC
  8
0
 62
0
 10
7.61516747365099
 20
17.103946185259357
 30
0.0
 40
0.5550000000000002
 50
155.99999999999997
 51
-24.000000000000053
  0
ARC
  8
0
 62
0
 10
5.115106734896299
 20
-18.024107713021987
 30
0.0
 40
0.15000000000000002
 50
-71.99999999999989
 51
18.000000000000234
  0
ARC
  8
0
 62
0
 10
6.9711179260129565
 20
17.390695518627798
 30
0.0
 40
0.15000000000000002
 50
-24.00000000000038
 51
65.99999999999964
  0
LINE
  8
0
 62
0
 10
4.891291655821374
 20
-18.254548974163093
 30
0.0
 11
5.16145928405254
 21
-18.16676619046626
 31
0.0
  0
LINE
  8
0
 62
0
 10
6.772616600259853
 20
17.64326944470076
 30
0.0
 11
7.032128422474326
 21
17.527727337274186
 31
0.0
  0
LINE
  8
0
 62
0
 10
4.891291655821378
 20
-18.254548974163093
 30
0.0
 11
4.613428234644571
 21
-18.313610667582306
 31
0.0
  0
LINE
  8
0
 62
0
 10
6.77261660025986
 20
17.64326944470076
 30
0.0
 11
6.502448972028727
 21
17.731052228397584
 31
0.0
  0
ARC
  8
0
 62
0
 10
4.582241481021907
 20
-18.16688852747224
 30
0.0
 40
0.15000000000000002
 50
-168.00000000000037
 51
-78.00000000000011
  0
ARC
  8
0
 62
0
 10
6.456096422872486
 20
17.588393750953312
 30
0.0
 40
0.15000000000000005
 50
71.99999999999989
 51
161.99999999999977
  0
ARC
  8
0
 62
0
 10
3.8926474225045746
 20
-18.313466269498758
 30
0.0
 40
0.5550000000000002
 50
11.999999999999988
 51
-168.00000000000003
  0
ARC
  8
0
 62
0
 10
5.785601578884402
 20
17.80625073198765
 30
0.0
 40
0.5550000000000003
 50
162.0000000000001
 51
-17.999999999999904
  0
ARC
  8
0
 62
0
 10
3.2030533639872414
 20
-18.460044011525277
 30
0.0
 40
0.15000000000000002
 50
-78.00000000000011
 51
11.99999999999959
  0
ARC
  8
0
 62
0
 10
5.115106734896319
 20
18.024107713021987
 30
0.0
 40
0.15000000000000005
 50
-18.000000000000234
 51
71.99999999999989
  0
LINE
  8
0
 62
0
 10
2.956376696433051
 20
-18.66582784505457
 30
0.0
 11
3.2342401176099047
 21
-18.606766151635345
 31
0.0
  0
LINE
  8
0
 62
0
 10
4.89129165582138
 20
18.254548974163097
 30
0.0
 11
5.161459284052559
 21
18.16676619046626
 31
0.0
  0
LINE
  8
0
 62
0
 10
2.956376696433052
 20
-18.66582784505457
 30
0.0
 11
2.673861812099741
 21
-18.695521355923592
 31
0.0
  0
LINE
  8
0
 62
0
 10
4.891291655821376
 20
18.254548974163093
 30
0.0
 11
4.613428234644589
 21
18.313610667582303
 31
0.0
  0
ARC
  8
0
 62
0
 10
2.6581825426095933
 20
-18.54634307161835
 30
0.0
 40
0.15000000000000005
 50
-173.99999999999937
 51
-83.99999999999997
  0
ARC
  8
0
 62
0
 10
4.582241481021925
 20
18.16688852747223
 30
0.0
 40
0.15000000000000002
 50
78.00000000000011
 51
168.00000000000037
  0
ARC
  8
0
 62
0
 10
1.95704460637496
 20
-18.620035638222046
 30
0.0
 40
0.5550000000000003
 50
5.999999999999965
 51
-174.00000000000003
  0
ARC
  8
0
 62
0
 10
3.8926474225045924
 20
18.31346626949875
 30
0.0
 40
0.5550000000000002
 50
168.00000000000003
 51
-11.999999999999988
  0
ARC
  8
0
 62
0
 10
1.255906670140327
 20
-18.693728204825742
 30
0.0
 40
0.15000000000000005
 50
-83.99999999999997
 51
5.999999999999296
  0
ARC
  8
0
 62
0
 10
3.2030533639872596
 20
18.46004401152527
 30
0.0
 40
0.15000000000000002
 50
-11.99999999999965
 51
78.00000000000011
  0
LINE
  8
0
 62
0
 10
0.9890710552971422
 20
-18.872600000000006
 30
0.0
 11
1.2715859396304747
 21
-18.84290648913098
 31
0.0
  0
LINE
  8
0
 62
0
 10
2.9563766964331264
 20
18.66582784505455
 30
0.0
 11
3.2342401176099225
 21
18.60676615163534
 31
0.0
  0
LINE
  8
0
 62
0
 10
0.989071055297146
 20
-18.8726
 30
0.0
 11
0.7050000000000001
 21
-18.8726
 31
0.0
  0
LINE
  8
0
 62
0
 10
2.95637669643312
 20
18.665827845054544
 30
0.0
 11
2.67386181209976
 21
18.695521355923574
 31
0.0
  0
ARC
  8
0
 62
0
 10
0.7050000000000001
 20
-18.7226
 30
0.0
 40
0.15
 50
-180.0
 51
-89.99999999999996
  0
ARC
  8
0
 62
0
 10
2.658182542609612
 20
18.546343071618335
 30
0.0
 40
0.14999999999999997
 50
83.99999999999997
 51
173.99999999999937
  0
ARC
  8
0
 62
0
 10
0.0
 20
-18.7226
 30
0.0
 40
0.555
 50
-0.0
 51
-180.0
  0
ARC
  8
0
 62
0
 10
1.9570446063749791
 20
18.62003563822203
 30
0.0
 40
0.5549999999999999
 50
174.00000000000003
 51
-5.999999999999965
  0
ARC
  8
0
 62
0
 10
-0.7050000000000001
 20
-18.7226
 30
0.0
 40
0.15
 50
-89.99999999999996
 51
-0.0
  0
ARC
  8
0
 62
0
 10
1.2559066701403465
 20
18.693728204825728
 30
0.0
 40
0.14999999999999997
 50
-5.999999999999296
 51
83.99999999999997
  0
LINE
  8
0
 62
0
 10
-0.98907105529712
 20
-18.8726
 30
0.0
 11
-0.7050000000000001
 21
-18.8726
 31
0.0
  0
LINE
  8
0
 62
0
 10
0.9890710552971612
 20
18.872599999999995
 30
0.0
 11
1.2715859396304947
 21
18.842906489130968
 31
0.0
  0
LINE
  8
0
 62
0
 10
-0.9890710552971274
 20
-18.8726
 30
0.0
 11
-1.2715859396304947
 21
-18.842906489130968
 31
0.0
  0
LINE
  8
0
 62
0
 10
0.989071055297167
 20
18.8726
 30
0.0
 11
0.7050000000000001
 21
18.8726
 31
0.0
  0
ARC
  8
0
 62
0
 10
-1.2559066701403465
 20
-18.693728204825728
 30
0.0
 40
0.14999999999999997
 50
174.0000000000007
 51
-96.00000000000003
  0
ARC
  8
0
 62
0
 10
0.7050000000000001
 20
18.7226
 30
0.0
 40
0.15
 50
90.00000000000006
 51
-180.0
  0
ARC
  8
0
 62
0
 10
-1.9570446063749791
 20
-18.62003563822203
 30
0.0
 40
0.5549999999999999
 50
-5.999999999999965
 51
174.00000000000003
  0
ARC
  8
0
 62
0
 10
0.0
 20
18.7226
 30
0.0
 40
0.555
 50
-180.0
 51
-0.0
  0
ARC
  8
0
 62
0
 10
-2.658182542609612
 20
-18.546343071618335
 30
0.0
 40
0.14999999999999997
 50
-96.00000000000003
 51
-6.000000000000634
  0
ARC
  8
0
 62
0
 10
-0.7050000000000001
 20
18.7226
 30
0.0
 40
0.15
 50
-0.0
 51
90.00000000000006
  0
LINE
  8
0
 62
0
 10
-2.9563766964331033
 20
-18.665827845054547
 30
0.0
 11
-2.67386181209976
 21
-18.695521355923574
 31
0.0
  0
LINE
  8
0
 62
0
 10
-0.989071055297117
 20
18.8726
 30
0.0
 11
-0.7050000000000001
 21
18.8726
 31
0.0
  0
LINE
  8
0
 62
0
 10
-2.956376696433101
 20
-18.665827845054558
 30
0.0
 11
-3.2342401176099225
 21
-18.60676615163534
 31
0.0
  0
LINE
  8
0
 62
0
 10
-0.9890710552971093
 20
18.87259999999999
 30
0.0
 11
-1.2715859396304756
 21
18.84290648913096
 31
0.0
  0
ARC
  8
0
 62
0
 10
-3.2030533639872596
 20
-18.46004401152527
 30
0.0
 40
0.15000000000000002
 50
168.00000000000037
 51
-101.99999999999989
  0
ARC
  8
0
 62
0
 10
-1.2559066701403276
 20
18.693728204825725
 30
0.0
 40
0.14999999999999994
 50
96.00000000000003
 51
-174.0000000000007
  0
ARC
  8
0
 62
0
 10
-3.8926474225045924
 20
-18.31346626949875
 30
0.0
 40
0.5550000000000002
 50
-11.999999999999988
 51
168.00000000000003
  0
ARC
  8
0
 62
0
 10
-1.9570446063749602
 20
18.620035638222028
 30
0.0
 40
0.5549999999999998
 50
-174.00000000000003
 51
5.999999999999965
  0
ARC
  8
0
 62
0
 10
-4.582241481021925
 20
-18.16688852747223
 30
0.0
 40
0.15000000000000002
 50
-101.99999999999989
 51
-11.99999999999965
  0
ARC
  8
0
 62
0
 10
-2.658182542609593
 20
18.54634307161833
 30
0.0
 40
0.14999999999999994
 50
6.000000000000634
 51
96.00000000000003
  0
LINE
  8
0
 62
0
 10
-4.8912916558213695
 20
-18.254548974163097
 30
0.0
 11
-4.613428234644589
 21
-18.313610667582303
 31
0.0
  0
LINE
  8
0
 62
0
 10
-2.9563766964330793
 20
18.665827845054547
 30
0.0
 11
-2.673861812099741
 21
18.695521355923574
 31
0.0
  0
LINE
  8
0
 62
0
 10
-4.891291655821376
 20
-18.2545489741631
 30
0.0
 11
-5.161459284052559
 21
-18.16676619046626
 31
0.0
  0
LINE
  8
0
 62
0
 10
-2.9563766964330815
 20
18.66582784505456
 30
0.0
 11
-3.2342401176099047
 21
18.606766151635345
 31
0.0
  0
ARC
  8
0
 62
0
 10
-5.115106734896319
 20
-18.024107713021987
 30
0.0
 40
0.15000000000000005
 50
161.99999999999977
 51
-108.00000000000013
  0
ARC
  8
0
 62
0
 10
-3.2030533639872414
 20
18.460044011525277
 30
0.0
 40
0.15000000000000002
 50
101.99999999999989
 51
-168.00000000000043
  0
ARC
  8
0
 62
0
 10
-5.785601578884402
 20
-17.80625073198765
 30
0.0
 40
0.5550000000000003
 50
-17.999999999999904
 51
162.0000000000001
  0
ARC
  8
0
 62
0
 10
-3.8926474225045746
 20
18.313466269498758
 30
0.0
 40
0.5550000000000002
 50
-168.00000000000003
 51
11.999999999999988
  0
ARC
  8
0
 62
0
 10
-6.456096422872486
 20
-17.588393750953312
 30
0.0
 40
0.15000000000000005
 50
-108.00000000000013
 51
-18.000000000000234
  0
ARC
  8
0
 62
0
 10
-4.582241481021907
 20
18.16688852747224
 30
0.0
 40
0.15000000000000002
 50
11.99999999999965
 51
101.99999999999989
  0
LINE
  8
0
 62
0
 10
-6.772616600259867
 20
-17.643269444700756
 30
0.0
 11
-6.502448972028727
 21
-17.731052228397584
 31
0.0
  0
LINE
  8
0
 62
0
 10
-4.891291655821375
 20
18.254548974163093
 30
0.0
 11
-4.613428234644571
 21
18.313610667582306
 31
0.0
  0
LINE
  8
0
 62
0
 10
-6.772616600259849
 20
-17.643269444700753
 30
0.0
 11
-7.032128422474308
 21
-17.527727337274186
 31
0.0
  0
LINE
  8
0
 62
0
 10
-4.891291655821372
 20
18.254548974163093
 30
0.0
 11
-5.16145928405254
 21
18.16676619046626
 31
0.0
  0
ARC
  8
0
 62
0
 10
-6.97111792601294
 20
-17.3906955186278
 30
0.0
 40
0.15
 50
155.99999999999963
 51
-113.9999999999998
  0
ARC
  8
0
 62
0
 10
-5.115106734896299
 20
18.024107713021987
 30
0.0
 40
0.15000000000000002
 50
108.00000000000013
 51
-161.99999999999977
  0
ARC
  8
0
 62
0
 10
-7.615167473650973
 20
-17.10394618525936
 30
0.0
 40
0.555
 50
-24.000000000000053
 51
156.0
  0
ARC
  8
0
 62
0
 10
-5.785601578884383
 20
17.80625073198765
 30
0.0
 40
0.5550000000000002
 50
-162.0000000000001
 51
17.999999999999904
  0
ARC
  8
0
 62
0
 10
-8.259217021289007
 20
-16.81719685189092
 30
0.0
 40
0.15
 50
-113.9999999999995
 51
-24.00000000000038
  0
ARC
  8
0
 62
0
 10
-6.456096422872467
 20
17.588393750953312
 30
0.0
 40
0.15000000000000002
 50
18.000000000000234
 51
108.00000000000013
  0
LINE
  8
0
 62
0
 10
-8.579739339964798
 20
-16.838686563110763
 30
0.0
 11
-8.320227517750377
 21
-16.95422867053731
 31
0.0
  0
LINE
  8
0
 62
0
 10
-6.772616600259861
 20
17.643269444700753
 30
0.0
 11
-6.502448972028708
 21
17.731052228397584
 31
0.0
  0
LINE
  8
0
 62
0
 10
-8.5797393399648
 20
-16.838686563110755
 30
0.0
 11
-8.825752090331973
 21
-16.696651035462185
 31
0.0
  0
LINE
  8
0
 62
0
 10
-6.772616600259865
 20
17.643269444700746
 30
0.0
 11
-7.032128422474308
 21
17.527727337274186
 31
0.0
  0
ARC
  8
0
 62
0
 10
-8.750752090331975
 20
-16.56674722489452
 30
0.0
 40
0.14999999999999994
 50
150.00000000000009
 51
-119.99999999999991
  0
ARC
  8
0
 62
0
 10
-6.97111792601294
 20
17.3906955186278
 30
0.0
 40
0.15
 50
114.00000000000036
 51
-155.99999999999963
  0
ARC
  8
0
 62
0
 10
-9.361300000000004
 20
-16.21424722489452
 30
0.0
 40
0.5549999999999998
 50
-29.999999999999993
 51
150.0
  0
ARC
  8
0
 62
0
 10
-7.615167473650973
 20
17.10394618525936
 30
0.0
 40
0.555
 50
-156.0
 51
24.000000000000053
  0
ARC
  8
0
 62
0
 10
-9.971847909668032
 20
-15.861747224894522
 30
0.0
 40
0.14999999999999994
 50
-119.99999999999991
 51
-30.0000000000005
  0
ARC
  8
0
 62
0
 10
-8.259217021289007
 20
16.81719685189092
 30
0.0
 40
0.15
 50
24.00000000000038
 51
114.00000000000004
  0
LINE
  8
0
 62
0
 10
-10.292860660035219
 20
-15.849615507813613
 30
0.0
 11
-10.046847909668033
 21
-15.991651035462189
 31
0.0
  0
LINE
  8
0
 62
0
 10
-8.5797393399648
 20
16.83868656311076
 30
0.0
 11
-8.320227517750377
 21
16.95422867053731
 31
0.0
  0
LINE
  8
0
 62
0
 10
-10.292860660035219
 20
-15.849615507813612
 30
0.0
 11
-10.522678971380591
 21
-15.68264273090682
 31
0.0
  0
LINE
  8
0
 62
0
 10
-8.579739339964803
 20
16.838686563110766
 30
0.0
 11
-8.825752090331969
 21
16.696651035462203
 31
0.0
  0
ARC
  8
0
 62
0
 10
-10.434511183536719
 20
-15.56129018175058
 30
0.0
 40
0.14999999999999997
 50
144.00000000000017
 51
-125.99999999999984
  0
ARC
  8
0
 62
0
 10
-8.75075209033197
 20
16.566747224894538
 30
0.0
 40
0.15000000000000002
 50
119.99999999999991
 51
-150.00000000000009
  0
ARC
  8
0
 62
0
 10
-11.004868164571057
 20
-15.146901578884387
 30
0.0
 40
0.5549999999999999
 50
-35.99999999999997
 51
144.00000000000003
  0
ARC
  8
0
 62
0
 10
-9.3613
 20
16.21424722489454
 30
0.0
 40
0.5550000000000002
 50
-150.0
 51
29.999999999999993
  0
ARC
  8
0
 62
0
 10
-11.575225145605396
 20
-14.732512976018194
 30
0.0
 40
0.14999999999999997
 50
-125.99999999999984
 51
-35.99999999999984
  0
ARC
  8
0
 62
0
 10
-9.97184790966803
 20
15.86174722489454
 30
0.0
 40
0.15000000000000002
 50
29.999999999999915
 51
119.99999999999991
  0
LINE
  8
0
 62
0
 10
-11.893211244794651
 20
-14.686892748267635
 30
0.0
 11
-11.663392933449265
 21
-14.853865525174434
 31
0.0
  0
LINE
  8
0
 62
0
 10
-10.292860660035185
 20
15.849615507813647
 30
0.0
 11
-10.04684790966803
 21
15.991651035462205
 31
0.0
  0
LINE
  8
0
 62
0
 10
-11.89321124479465
 20
-14.68689274826764
 30
0.0
 11
-12.104317179606621
 21
-14.496812110787662
 31
0.0
  0
LINE
  8
0
 62
0
 10
-10.292860660035185
 20
15.849615507813636
 30
0.0
 11
-10.522678971380591
 21
15.68264273090682
 31
0.0
  0
ARC
  8
0
 62
0
 10
-12.003947588652792
 20
-14.385340386966053
 30
0.0
 40
0.14999999999999997
 50
137.99999999999991
 51
-132.00000000000009
  0
ARC
  8
0
 62
0
 10
-10.434511183536719
 20
15.56129018175058
 30
0.0
 40
0.14999999999999997
 50
125.99999999999984
 51
-144.00000000000017
  0
ARC
  8
0
 62
0
 10
-12.527864690614356
 20
-13.913603309483058
 30
0.0
 40
0.5549999999999999
 50
-42.000000000000064
 51
137.99999999999994
  0
ARC
  8
0
 62
0
 10
-11.004868164571057
 20
15.146901578884387
 30
0.0
 40
0.5549999999999999
 50
-144.00000000000003
 51
35.99999999999997
  0
ARC
  8
0
 62
0
 10
-13.05178179257592
 20
-13.441866232000063
 30
0.0
 40
0.14999999999999997
 50
-132.00000000000009
 51
-42.000000000000085
  0
ARC
  8
0
 62
0
 10
-11.575225145605396
 20
14.732512976018194
 30
0.0
 40
0.14999999999999997
 50
35.99999999999984
 51
125.99999999999984
  0
LINE
  8
0
 62
0
 10
-13.363257318341716
 20
-13.363257318341697
 30
0.0
 11
-13.152151383529747
 21
-13.553337955821672
 31
0.0
  0
LINE
  8
0
 62
0
 10
-11.893211244794664
 20
14.686892748267626
 30
0.0
 11
-11.663392933449265
 21
14.853865525174434
 31
0.0
  0
LINE
  8
0
 62
0
 10
-13.363257318341713
 20
-13.363257318341699
 30
0.0
 11
-13.553337955821672
 21
-13.152151383529747
 31
0.0
  0
LINE
  8
0
 62
0
 10
-11.893211244794665
 20
14.686892748267626
 30
0.0
 11
-12.104317179606621
 21
14.496812110787662
 31
0.0
  0
ARC
  8
0
 62
0
 10
-13.441866232000063
 20
-13.05178179257592
 30
0.0
 40
0.14999999999999997
 50
132.00000000000009
 51
-137.99999999999991
  0
ARC
  8
0
 62
0
 10
-12.003947588652792
 20
14.385340386966053
 30
0.0
 40
0.14999999999999997
 50
132.00000000000009
 51
-137.99999999999991
  0
ARC
  8
0
 62
0
 10
-13.913603309483058
 20
-12.527864690614356
 30
0.0
 40
0.5549999999999999
 50
-47.99999999999994
 51
132.00000000000006
  0
ARC
  8
0
 62
0
 10
-12.527864690614356
 20
13.913603309483058
 30
0.0
 40
0.5549999999999999
 50
-137.99999999999994
 51
42.000000000000064
  0
ARC
  8
0
 62
0
 10
-14.385340386966053
 20
-12.003947588652792
 30
0.0
 40
0.14999999999999997
 50
-137.99999999999991
 51
-47.999999999999915
  0
ARC
  8
0
 62
0
 10
-13.05178179257592
 20
13.441866232000063
 30
0.0
 40
0.14999999999999997
 50
42.000000000000085
 51
132.00000000000009
  0
LINE
  8
0
 62
0
 10
-14.686892748267622
 20
-11.893211244794667
 30
0.0
 11
-14.496812110787662
 21
-12.104317179606621
 31
0.0
  0
LINE
  8
0
 62
0
 10
-13.36325731834168
 20
13.363257318341729
 30
0.0
 11
-13.152151383529747
 21
13.553337955821672
 31
0.0
  0
LINE
  8
0
 62
0
 10
-14.686892748267624
 20
-11.893211244794664
 30
0.0
 11
-14.853865525174434
 21
-11.663392933449265
 31
0.0
  0
LINE
  8
0
 62
0
 10
-13.363257318341681
 20
13.363257318341732
 30
0.0
 11
-13.553337955821672
 21
13.152151383529747
 31
0.0
  0
ARC
  8
0
 62
0
 10
-14.732512976018194
 20
-11.575225145605396
 30
0.0
 40
0.14999999999999997
 50
125.99999999999984
 51
-144.00000000000017
  0
ARC
  8
0
 62
0
 10
-13.441866232000063
 20
13.05178179257592
 30
0.0
 40
0.14999999999999997
 50
137.99999999999991
 51
-132.00000000000009
  0
ARC
  8
0
 62
0
 10
-15.146901578884387
 20
-11.004868164571057
 30
0.0
 40
0.5549999999999999
 50
-54.00000000000003
 51
125.99999999999997
  0
ARC
  8
0
 62
0
 10
-13.913603309483058
 20
12.527864690614356
 30
0.0
 40
0.5549999999999999
 50
-132.00000000000006
 51
47.99999999999994
  0
ARC
  8
0
 62
0
 10
-15.56129018175058
 20
-10.434511183536719
 30
0.0
 40
0.14999999999999997
 50
-144.00000000000017
 51
-54.00000000000016
  0
ARC
  8
0
 62
0
 10
-14.385340386966053
 20
12.003947588652792
 30
0.0
 40
0.14999999999999997
 50
47.999999999999915
 51
137.99999999999991
  0
LINE
  8
0
 62
0
 10
-15.84961550781364
 20
-10.292860660035178
 30
0.0
 11
-15.68264273090682
 21
-10.522678971380591
 31
0.0
  0
LINE
  8
0
 62
0
 10
-14.686892748267637
 20
11.893211244794651
 30
0.0
 11
-14.496812110787662
 21
12.104317179606621
 31
0.0
  0
LINE
  8
0
 62
0
 10
-15.84961550781365
 20
-10.292860660035176
 30
0.0
 11
-15.991651035462205
 21
-10.04684790966803
 31
0.0
  0
LINE
  8
0
 62
0
 10
-14.686892748267633
 20
11.893211244794651
 30
0.0
 11
-14.853865525174434
 21
11.663392933449265
 31
0.0
  0
ARC
  8
0
 62
0
 10
-15.86174722489454
 20
-9.97184790966803
 30
0.0
 40
0.15000000000000002
 50
119.99999999999991
 51
-150.00000000000009
  0
ARC
  8
0
 62
0
 10
-14.732512976018194
 20
11.575225145605396
 30
0.0
 40
0.14999999999999997
 50
144.00000000000017
 51
-125.99999999999984
  0
ARC
  8
0
 62
0
 10
-16.21424722489454
 20
-9.3613
 30
0.0
 40
0.5550000000000002
 50
-60.00000000000001
 51
119.99999999999999
  0
ARC
  8
0
 62
0
 10
-15.146901578884387
 20
11.004868164571057
 30
0.0
 40
0.5549999999999999
 50
-125.99999999999997
 51
54.00000000000003
  0
ARC
  8
0
 62
0
 10
-16.566747224894538
 20
-8.75075209033197
 30
0.0
 40
0.15000000000000002
 50
-150.00000000000009
 51
-60.00000000000011
  0
ARC
  8
0
 62
0
 10
-15.56129018175058
 20
10.434511183536719
 30
0.0
 40
0.14999999999999997
 50
54.00000000000016
 51
144.00000000000017
  0
LINE
  8
0
 62
0
 10
-16.83868656311077
 20
-8.579739339964798
 30
0.0
 11
-16.696651035462203
 21
-8.825752090331969
 31
0.0
  0
LINE
  8
0
 62
0
 10
-15.849615507813628
 20
10.292860660035196
 30
0.0
 11
-15.68264273090682
 21
10.522678971380591
 31
0.0
  0
LINE
  8
0
 62
0
 10
-16.838686563110763
 20
-8.579739339964792
 30
0.0
 11
-16.95422867053731
 21
-8.320227517750377
 31
0.0
  0
LINE
  8
0
 62
0
 10
-15.849615507813642
 20
10.292860660035192
 30
0.0
 11
-15.991651035462205
 21
10.04684790966803
 31
0.0
  0
ARC
  8
0
 62
0
 10
-16.81719685189092
 20
-8.259217021289007
 30
0.0
 40
0.15
 50
114.00000000000038
 51
-155.99999999999997
  0
ARC
  8
0
 62
0
 10
-15.86174722489454
 20
9.97184790966803
 30
0.0
 40
0.15000000000000002
 50
150.00000000000009
 51
-120.00000000000047
  0
ARC
  8
0
 62
0
 10
-17.10394618525936
 20
-7.615167473650973
 30
0.0
 40
0.555
 50
-65.99999999999997
 51
114.00000000000006
  0
ARC
  8
0
 62
0
 10
-16.21424722489454
 20
9.3613
 30
0.0
 40
0.5550000000000002
 50
-119.99999999999999
 51
60.00000000000001
  0
ARC
  8
0
 62
0
 10
-17.3906955186278
 20
-6.97111792601294
 30
0.0
 40
0.15
 50
-155.99999999999966
 51
-65.99999999999962
  0
ARC
  8
0
 62
0
 10
-16.566747224894538
 20
8.75075209033197
 30
0.0
 40
0.15000000000000002
 50
60.00000000000011
 51
150.00000000000009
  0
LINE
  8
0
 62
0
 10
-17.643269444700746
 20
-6.772616600259863
 30
0.0
 11
-17.527727337274186
 21
-7.032128422474308
 31
0.0
  0
LINE
  8
0
 62
0
 10
-16.838686563110787
 20
8.579739339964771
 30
0.0
 11
-16.696651035462203
 21
8.825752090331969
 31
0.0
  0
LINE
  8
0
 62
0
 10
-17.643269444700753
 20
-6.772616600259858
 30
0.0
 11
-17.731052228397584
 21
-6.502448972028708
 31
0.0
  0
LINE
  8
0
 62
0
 10
-16.838686563110777
 20
8.579739339964766
 30
0.0
 11
-16.95422867053731
 21
8.320227517750377
 31
0.0
  0
ARC
  8
0
 62
0
 10
-17.588393750953312
 20
-6.456096422872467
 30
0.0
 40
0.15000000000000002
 50
108.00000000000023
 51
-161.99999999999986
  0
ARC
  8
0
 62
0
 10
-16.81719685189092
 20
8.259217021289007
 30
0.0
 40
0.15
 50
156.0000000000005
 51
-114.00000000000038
  0
ARC
  8
0
 62
0
 10
-17.80625073198765
 20
-5.785601578884383
 30
0.0
 40
0.5550000000000002
 50
-72.0000000000001
 51
107.9999999999999
  0
ARC
  8
0
 62
0
 10
-17.10394618525936
 20
7.615167473650973
 30
0.0
 40
0.555
 50
-114.00000000000006
 51
65.99999999999997
  0
ARC
  8
0
 62
0
 10
-18.024107713021987
 20
-5.115106734896299
 30
0.0
 40
0.15000000000000002
 50
-161.99999999999986
 51
-71.99999999999977
  0
ARC
  8
0
 62
0
 10
-17.3906955186278
 20
6.97111792601294
 30
0.0
 40
0.15
 50
65.99999999999962
 51
156.0000000000002
  0
LINE
  8
0
 62
0
 10
-18.254548974163093
 20
-4.891291655821376
 30
0.0
 11
-18.16676619046626
 21
-5.16145928405254
 31
0.0
  0
LINE
  8
0
 62
0
 10
-17.643269444700742
 20
6.772616600259874
 30
0.0
 11
-17.527727337274186
 21
7.032128422474308
 31
0.0
  0
LINE
  8
0
 62
0
 10
-18.254548974163093
 20
-4.891291655821381
 30
0.0
 11
-18.313610667582306
 21
-4.613428234644571
 31
0.0
  0
LINE
  8
0
 62
0
 10
-17.64326944470075
 20
6.772616600259874
 30
0.0
 11
-17.731052228397584
 21
6.502448972028708
 31
0.0
  0
ARC
  8
0
 62
0
 10
-18.16688852747224
 20
-4.582241481021907
 30
0.0
 40
0.15000000000000002
 50
101.99999999999963
 51
-168.00000000000009
  0
ARC
  8
0
 62
0
 10
-17.588393750953312
 20
6.456096422872467
 30
0.0
 40
0.15000000000000002
 50
161.99999999999986
 51
-108.00000000000023
  0
ARC
  8
0
 62
0
 10
-18.313466269498758
 20
-3.8926474225045746
 30
0.0
 40
0.5550000000000002
 50
-78.00000000000003
 51
101.99999999999997
  0
ARC
  8
0
 62
0
 10
-17.80625073198765
 20
5.785601578884383
 30
0.0
 40
0.5550000000000002
 50
-107.9999999999999
 51
72.0000000000001
  0
ARC
  8
0
 62
0
 10
-18.460044011525277
 20
-3.2030533639872414
 30
0.0
 40
0.15000000000000002
 50
-168.00000000000009
 51
-78.0000000000004
  0
ARC
  8
0
 62
0
 10
-18.024107713021987
 20
5.115106734896299
 30
0.0
 40
0.15000000000000002
 50
71.99999999999977
 51
161.99999999999986
  0
LINE
  8
0
 62
0
 10
-18.66582784505456
 20
-2.95637669643308
 30
0.0
 11
-18.606766151635345
 21
-3.2342401176099047
 31
0.0
  0
LINE
  8
0
 62
0
 10
-18.254548974163097
 20
4.891291655821369
 30
0.0
 11
-18.16676619046626
 21
5.16145928405254
 31
0.0
  0
LINE
  8
0
 62
0
 10
-18.665827845054547
 20
-2.956376696433078
 30
0.0
 11
-18.695521355923574
 21
-2.673861812099741
 31
0.0
  0
LINE
  8
0
 62
0
 10
-18.254548974163097
 20
4.89129165582137
 30
0.0
 11
-18.313610667582306
 21
4.613428234644571
 31
0.0
  0
ARC
  8
0
 62
0
 10
-18.54634307161833
 20
-2.658182542609593
 30
0.0
 40
0.14999999999999994
 50
96.00000000000067
 51
-174.0
  0
ARC
  8
0
 62
0
 10
-18.16688852747224
 20
4.582241481021907
 30
0.0
 40
0.15000000000000002
 50
168.00000000000009
 51
-101.99999999999963
  0
ARC
  8
0
 62
0
 10
-18.620035638222028
 20
-1.9570446063749602
 30
0.0
 40
0.5549999999999998
 50
-84.00000000000007
 51
95.99999999999993
  0
ARC
  8
0
 62
0
 10
-18.313466269498758
 20
3.8926474225045746
 30
0.0
 40
0.5550000000000002
 50
-101.99999999999997
 51
78.00000000000003
  0
ARC
  8
0
 62
0
 10
-18.693728204825725
 20
-1.2559066701403276
 30
0.0
 40
0.14999999999999994
 50
-174.0
 51
-84.0000000000007
  0
ARC
  8
0
 62
0
 10
-18.460044011525277
 20
3.2030533639872414
 30
0.0
 40
0.15000000000000002
 50
78.0000000000004
 51
168.00000000000009
  0
LINE
  8
0
 62
0
 10
-18.87259999999999
 20
-0.9890710552971093
 30
0.0
 11
-18.84290648913096
 21
-1.2715859396304756
 31
0.0
  0
LINE
  8
0
 62
0
 10
-18.66582784505456
 20
2.9563766964330793
 30
0.0
 11
-18.606766151635345
 21
3.2342401176099047
 31
0.0
  0
LINE
  8
0
 62
0
 10
-18.8726
 20
-0.989071055297116
 30
0.0
 11
-18.8726
 21
-0.7050000000000001
 31
0.0
  0
LINE
  8
0
 62
0
 10
-18.665827845054547
 20
2.9563766964330944
 30
0.0
 11
-18.695521355923574
 21
2.67386181209976
 31
0.0
  0
ARC
  8
0
 62
0
 10
-18.7226
 20
-0.7050000000000001
 30
0.0
 40
0.15
 50
90.0
 51
-180.0
  0
ARC
  8
0
 62
0
 10
-18.546343071618335
 20
2.658182542609612
 30
0.0
 40
0.14999999999999997
 50
174.0
 51
-96.00000000000065
  0
ARC
  8
0
 62
0
 10
-18.7226
 20
0.0
 30
0.0
 40
0.555
 50
-90.0
 51
90.0
  0
ARC
  8
0
 62
0
 10
-18.62003563822203
 20
1.9570446063749791
 30
0.0
 40
0.5549999999999999
 50
-95.99999999999993
 51
84.00000000000009
  0
ARC
  8
0
 62
0
 10
-18.7226
 20
0.7050000000000001
 30
0.0
 40
0.15
 50
-180.0
 51
-90.0
  0
ARC
  8
0
 62
0
 10
-18.693728204825728
 20
1.2559066701403465
 30
0.0
 40
0.14999999999999997
 50
84.0000000000007
 51
174.0
  0
LINE
  8
0
 62
0
 10
-18.8726
 20
0.989071055297118
 30
0.0
 11
-18.8726
 21
0.7050000000000001
 31
0.0
  0
LINE
  8
0
 62
0
 10
-18.8726
 20
0.9890710552971274
 30
0.0
 11
-18.842906489130968
 21
1.2715859396304947
 31
0.0
  0
CIRCLE
  8
0
 62
0
 10
0.0
 20
13.5
 30
0.0
 40
1.55
  0
CIRCLE
  8
0
 62
0
 10
0.0
 20
0.0
 30
0.0
 40
9.5
  0
CIRCLE
  8
0
 62
0
 10
13.5
 20
0.0
 30
0.0
 40
1.55
  0
CIRCLE
  8
0
 62
0
 10
-13.5
 20
0.0
 30
0.0
 40
1.55
  0
CIRCLE
  8
0
 62
0
 10
0.0
 20
-13.5
 30
0.0
 40
1.55
  0
ENDBLK
  0
ENDSEC
  0
SECTION
  2
ENTITIES
  0
INSERT
  2
POCKET001
  8
0
 62
0
 10
0.0
 20
0.0
 30
0.0
  0
ENDSEC
  0
EOF
