  0
SECTION
  2
HEADER
  9
$ACADVER
  1
AC1009
  9
$INSBASE
 10
0.0
 20
0.0
 30
0.0
  9
$EXTMIN
 10
0.0
 20
0.0
 30
0.0
  9
$EXTMAX
 10
0.0
 20
0.0
 30
0.0
  0
ENDSEC
  0
SECTION
  2
TABLES
  0
TABLE
  2
VPORT
 70
0
  0
ENDTAB
  0
TABLE
  2
LTYPE
 70
1
  0
LTYPE
  2
CONTINUOUS
 70
0
  3
Solid line
 72
65
 73
0
 40
0.0
  0
ENDTAB
  0
TABLE
  2
LAYER
 70
1
  0
LAYER
  2
0
 70
64
 62
7
  6
continuous
  0
ENDTAB
  0
TABLE
  2
STYLE
 70
1
  0
STYLE
  2
STANDARD
 70
0
 40
0
 41
1.0
 50
0.0
 71
0
 42
1
 3
ARIAL.TTF
 4

  0
ENDTAB
  0
TABLE
  2
VIEW
 70
0
  0
ENDTAB
  0
ENDSEC
  0
SECTION
  2
BLOCKS
  0
BLOCK
  8
0
  2
POCKET001
 70
0
 10
0.0
 20
0.0
 30
0.0
  3
POCKET001
  0
LINE
  8
0
 62
0
 10
1.4157476723496167
 20
8.925842174732681
 30
0.0
 11
1.7194751418150422
 21
10.848353022251239
 31
0.0
  0
ARC
  8
0
 62
0
 10
2.230560852792134
 20
8.796596358641203
 30
0.0
 40
0.8249999999999998
 50
170.98682394059813
 51
-104.44347731360682
  0
POLYLINE
  8
0
 62
0
 70
0
 66
1
 10
0.0
 20
0.0
 30
0.0
  0
VERTEX
  8
0
 10
1.7194751418150422
 20
10.848353022251239
 30
0.0
  0
VERTEX
  8
0
 10
1.6723398125738471
 20
11.456529661848508
 30
0.0
  0
SEQEND
  8
0
  0
ARC
  8
0
 62
0
 10
-4.742900000000005e-13
 20
-1.4503999999999998e-12
 30
0.0
 40
8.250000000001524
 50
68.20716008301102
 51
75.79283991698885
  0
ARC
  8
0
 62
0
 10
3.365947973082667
 20
8.427686720409644
 30
0.0
 40
0.8249999999999984
 50
-111.5565226863933
 51
-58.25608105819273
  0
LINE
  8
0
 62
0
 10
3.8
 20
-1.2656542480726783e-15
 30
0.0
 11
3.8000000000000025
 21
7.726100062947463
 31
0.0
  0
LINE
  8
0
 62
0
 10
3.8000000000000007
 20
-1.2656542480726787e-15
 30
0.0
 11
3.431666999999999
 21
-1.142974714873901e-15
 31
0.0
  0
LINE
  8
0
 62
0
 10
3.431666999999999
 20
-1.1429747148739008e-15
 30
0.0
 11
3.4316669999999982
 21
-3.245792000000001
 31
0.0
  0
LINE
  8
0
 62
0
 10
3.4316669999999982
 20
-3.245792000000001
 30
0.0
 11
12.824136254105024
 21
-3.1354272918118906
 31
0.0
  0
ARC
  8
0
 62
0
 10
0.0017835312256835297
 20
-0.0005795044240724006
 30
0.0
 40
13.200000000000687
 50
-22.415539088379074
 51
-13.738355022050271
  0
POLYLINE
  8
0
 62
0
 70
0
 66
1
 10
0.0
 20
0.0
 30
0.0
  0
VERTEX
  8
0
 10
10.379025766574602
 20
-5.130752038280034
 30
0.0
  0
VERTEX
  8
0
 10
12.204426513599639
 20
-5.034018114831254
 30
0.0
  0
SEQEND
  8
0
  0
POLYLINE
  8
0
 62
0
 70
0
 66
1
 10
0.0
 20
0.0
 30
0.0
  0
VERTEX
  8
0
 10
9.786049792656142
 20
-4.9876434830851855
 30
0.0
  0
VERTEX
  8
0
 10
10.379025766574602
 20
-5.130752038280034
 30
0.0
  0
SEQEND
  8
0
  0
LINE
  8
0
 62
0
 10
8.051490273198814
 20
-4.104692970318838
 30
0.0
 11
9.786049792656142
 21
-4.9876434830851855
 31
0.0
  0
ARC
  8
0
 62
0
 10
7.676779077603689
 20
-4.839687201517742
 30
0.0
 40
0.8249999999999981
 50
62.986823940597965
 51
147.55652268639327
  0
ARC
  8
0
 62
0
 10
-9.352499999999999e-13
 20
6.767900000000003e-13
 30
0.0
 40
8.250000000001153
 50
-39.7928399169891
 51
-32.207160083010926
  0
ARC
  8
0
 62
0
 10
6.9750712468752765
 20
-5.80550517318538
 30
0.0
 40
0.8250000000000014
 50
140.44347731360688
 51
-134.98682394059827
  0
LINE
  8
0
 62
0
 10
7.767586529275393
 20
-7.765819825937689
 30
0.0
 11
6.391842321275655
 21
-6.389002405692882
 31
0.0
  0
POLYLINE
  8
0
 62
0
 70
0
 66
1
 10
0.0
 20
0.0
 30
0.0
  0
VERTEX
  8
0
 10
8.086930506427876
 20
-8.285550514343655
 30
0.0
  0
VERTEX
  8
0
 10
7.767586529275393
 20
-7.765819825937689
 30
0.0
  0
SEQEND
  8
0
  0
POLYLINE
  8
0
 62
0
 70
0
 66
1
 10
0.0
 20
0.0
 30
0.0
  0
VERTEX
  8
0
 10
8.559010930560579
 20
-10.051502215930093
 30
0.0
  0
VERTEX
  8
0
 10
8.086930506427876
 20
-8.285550514343655
 30
0.0
  0
SEQEND
  8
0
  0
ARC
  8
0
 62
0
 10
0.0011022829182034696
 20
-0.0015171622798719805
 30
0.0
 40
13.199999999999429
 50
-58.41553908837946
 51
-49.58446091162054
  0
POLYLINE
  8
0
 62
0
 70
0
 66
1
 10
0.0
 20
0.0
 30
0.0
  0
VERTEX
  8
0
 10
5.381027848943768
 20
-10.251503871648579
 30
0.0
  0
VERTEX
  8
0
 10
6.91466684843133
 20
-11.246188122270931
 30
0.0
  0
SEQEND
  8
0
  0
POLYLINE
  8
0
 62
0
 70
0
 66
1
 10
0.0
 20
0.0
 30
0.0
  0
VERTEX
  8
0
 10
4.985417307008114
 20
-9.787184086022465
 30
0.0
  0
VERTEX
  8
0
 10
5.381027848943768
 20
-10.251503871648579
 30
0.0
  0
SEQEND
  8
0
  0
LINE
  8
0
 62
0
 10
4.10111446792043
 20
-8.05331361124188
 30
0.0
 11
4.985417307008115
 21
-9.787184086022465
 31
0.0
  0
ARC
  8
0
 62
0
 10
3.365947973082658
 20
-8.42768672040965
 30
0.0
 40
0.8249999999999998
 50
26.986823940598107
 51
111.55652268639314
  0
ARC
  8
0
 62
0
 10
-5.794999999999993e-14
 20
1.8385000000000002e-13
 30
0.0
 40
8.250000000000192
 50
-75.79283991698958
 51
-68.20716008301049
  0
ARC
  8
0
 62
0
 10
2.230560852792125
 20
-8.796596358641201
 30
0.0
 40
0.8249999999999994
 50
104.44347731360683
 51
-170.98682394059813
  0
LINE
  8
0
 62
0
 10
1.7194751418150338
 20
-10.848353022251239
 30
0.0
 11
1.4157476723496099
 21
-8.925842174732681
 31
0.0
  0
POLYLINE
  8
0
 62
0
 70
0
 66
1
 10
0.0
 20
0.0
 30
0.0
  0
VERTEX
  8
0
 10
1.6723398125738382
 20
-11.456529661848508
 30
0.0
  0
VERTEX
  8
0
 10
1.7194751418150338
 20
-10.848353022251239
 30
0.0
  0
SEQEND
  8
0
  0
POLYLINE
  8
0
 62
0
 70
0
 66
1
 10
0.0
 20
0.0
 30
0.0
  0
VERTEX
  8
0
 10
1.016260531955618
 20
-13.162696510878472
 30
0.0
  0
VERTEX
  8
0
 10
1.6723398125738382
 20
-11.456529661848508
 30
0.0
  0
SEQEND
  8
0
  0
ARC
  8
0
 62
0
 10
-1.5506246056035891e-15
 20
-0.00187531570905186
 30
0.0
 40
13.20000000000119
 50
-94.41553908837889
 51
-85.58446091162112
  0
POLYLINE
  8
0
 62
0
 70
0
 66
1
 10
0.0
 20
0.0
 30
0.0
  0
VERTEX
  8
0
 10
-1.6723398125738484
 20
-11.456529661848508
 30
0.0
  0
VERTEX
  8
0
 10
-1.01626053195563
 20
-13.162696510878472
 30
0.0
  0
SEQEND
  8
0
  0
POLYLINE
  8
0
 62
0
 70
0
 66
1
 10
0.0
 20
0.0
 30
0.0
  0
VERTEX
  8
0
 10
-1.7194751418150436
 20
-10.848353022251239
 30
0.0
  0
VERTEX
  8
0
 10
-1.6723398125738484
 20
-11.456529661848508
 30
0.0
  0
SEQEND
  8
0
  0
LINE
  8
0
 62
0
 10
-1.4157476723496176
 20
-8.925842174732681
 30
0.0
 11
-1.7194751418150434
 21
-10.848353022251239
 31
0.0
  0
ARC
  8
0
 62
0
 10
-2.230560852792133
 20
-8.796596358641201
 30
0.0
 40
0.8249999999999993
 50
-9.013176059401896
 51
75.55652268639318
  0
ARC
  8
0
 62
0
 10
4.736200000000005e-13
 20
1.4463999999999998e-12
 30
0.0
 40
8.25000000000152
 50
-111.79283991698898
 51
-104.20716008301109
  0
ARC
  8
0
 62
0
 10
-3.3659479730826667
 20
-8.427686720409643
 30
0.0
 40
0.8249999999999976
 50
68.44347731360669
 51
153.01317605940196
  0
LINE
  8
0
 62
0
 10
-4.985417307008124
 20
-9.78718408602246
 30
0.0
 11
-4.101114467920437
 21
-8.053313611241874
 31
0.0
  0
POLYLINE
  8
0
 62
0
 70
0
 66
1
 10
0.0
 20
0.0
 30
0.0
  0
VERTEX
  8
0
 10
-5.381027848943779
 20
-10.251503871648575
 30
0.0
  0
VERTEX
  8
0
 10
-4.985417307008124
 20
-9.78718408602246
 30
0.0
  0
SEQEND
  8
0
  0
POLYLINE
  8
0
 62
0
 70
0
 66
1
 10
0.0
 20
0.0
 30
0.0
  0
VERTEX
  8
0
 10
-6.91466684843134
 20
-11.246188122270926
 30
0.0
  0
VERTEX
  8
0
 10
-5.381027848943779
 20
-10.251503871648575
 30
0.0
  0
SEQEND
  8
0
  0
ARC
  8
0
 62
0
 10
-0.0011022829174942605
 20
-0.0015171622788976396
 30
0.0
 40
13.200000000000633
 50
-130.41553908837915
 51
-121.58446091162101
  0
POLYLINE
  8
0
 62
0
 70
0
 66
1
 10
0.0
 20
0.0
 30
0.0
  0
VERTEX
  8
0
 10
-8.086930506427885
 20
-8.285550514343644
 30
0.0
  0
VERTEX
  8
0
 10
-8.559010930560587
 20
-10.051502215930084
 30
0.0
  0
SEQEND
  8
0
  0
POLYLINE
  8
0
 62
0
 70
0
 66
1
 10
0.0
 20
0.0
 30
0.0
  0
VERTEX
  8
0
 10
-7.767586529275401
 20
-7.765819825937682
 30
0.0
  0
VERTEX
  8
0
 10
-8.086930506427885
 20
-8.285550514343644
 30
0.0
  0
SEQEND
  8
0
  0
LINE
  8
0
 62
0
 10
-6.391842321275662
 20
-6.389002405692877
 30
0.0
 11
-7.767586529275401
 21
-7.765819825937683
 31
0.0
  0
ARC
  8
0
 62
0
 10
-6.975071246875281
 20
-5.805505173185374
 30
0.0
 40
0.8250000000000005
 50
-45.01317605940195
 51
39.55652268639313
  0
ARC
  8
0
 62
0
 10
-2.8999000000000006e-13
 20
-2.153799999999999e-13
 30
0.0
 40
8.24999999999964
 50
-147.79283991698986
 51
-140.20716008301022
  0
ARC
  8
0
 62
0
 10
-7.676779077603694
 20
-4.839687201517736
 30
0.0
 40
0.824999999999999
 50
32.44347731360678
 51
117.01317605940186
  0
LINE
  8
0
 62
0
 10
-9.786049792656147
 20
-4.987643483085177
 30
0.0
 11
-8.051490273198818
 21
-4.104692970318831
 31
0.0
  0
POLYLINE
  8
0
 62
0
 70
0
 66
1
 10
0.0
 20
0.0
 30
0.0
  0
VERTEX
  8
0
 10
-10.379025766574607
 20
-5.130752038280024
 30
0.0
  0
VERTEX
  8
0
 10
-9.786049792656147
 20
-4.987643483085177
 30
0.0
  0
SEQEND
  8
0
  0
POLYLINE
  8
0
 62
0
 70
0
 66
1
 10
0.0
 20
0.0
 30
0.0
  0
VERTEX
  8
0
 10
-12.204426513599644
 20
-5.034018114831243
 30
0.0
  0
VERTEX
  8
0
 10
-10.379025766574607
 20
-5.130752038280024
 30
0.0
  0
SEQEND
  8
0
  0
ARC
  8
0
 62
0
 10
-0.0017835312260743301
 20
-0.0005795044241965195
 30
0.0
 40
13.20000000000028
 50
-166.41553908837918
 51
-157.58446091162085
  0
POLYLINE
  8
0
 62
0
 70
0
 66
1
 10
0.0
 20
0.0
 30
0.0
  0
VERTEX
  8
0
 10
-11.41258861148487
 20
-1.9497726858636841
 30
0.0
  0
VERTEX
  8
0
 10
-12.832510063773269
 20
-3.1009757124912922
 30
0.0
  0
SEQEND
  8
0
  0
POLYLINE
  8
0
 62
0
 70
0
 66
1
 10
0.0
 20
0.0
 30
0.0
  0
VERTEX
  8
0
 10
-10.848743873108385
 20
-1.7170074066237246
 30
0.0
  0
VERTEX
  8
0
 10
-11.41258861148487
 20
-1.9497726858636841
 30
0.0
  0
SEQEND
  8
0
  0
LINE
  8
0
 62
0
 10
-8.926470454204427
 20
-1.411780871883238
 30
0.0
 11
-10.848743873108385
 21
-1.7170074066237246
 31
0.0
  0
ARC
  8
0
 62
0
 10
-9.055341498604175
 20
-0.5969083334360797
 30
0.0
 40
0.8249999999999981
 50
-81.01317605940208
 51
3.5565226863932398
  0
ARC
  8
0
 62
0
 10
6.8567e-13
 20
5.599999999997717e-16
 30
0.0
 40
8.250000000000684
 50
176.20716008301065
 51
-176.20716008301065
  0
ARC
  8
0
 62
0
 10
-9.055341498604175
 20
0.5969083334360867
 30
0.0
 40
0.824999999999998
 50
-3.5565226863932398
 51
81.01317605940208
  0
LINE
  8
0
 62
0
 10
-10.848743873108383
 20
1.7170074066237329
 30
0.0
 11
-8.926470454204427
 21
1.4117808718832445
 31
0.0
  0
POLYLINE
  8
0
 62
0
 70
0
 66
1
 10
0.0
 20
0.0
 30
0.0
  0
VERTEX
  8
0
 10
-11.412588611484868
 20
1.9497726858636932
 30
0.0
  0
VERTEX
  8
0
 10
-10.848743873108383
 20
1.7170074066237329
 30
0.0
  0
SEQEND
  8
0
  0
POLYLINE
  8
0
 62
0
 70
0
 66
1
 10
0.0
 20
0.0
 30
0.0
  0
VERTEX
  8
0
 10
-12.832510063773263
 20
3.1009757124913024
 30
0.0
  0
VERTEX
  8
0
 10
-11.412588611484868
 20
1.9497726858636932
 30
0.0
  0
SEQEND
  8
0
  0
ARC
  8
0
 62
0
 10
-0.0017835312256835297
 20
0.0005795044240706205
 30
0.0
 40
13.200000000000687
 50
157.58446091162094
 51
166.415539088379
  0
POLYLINE
  8
0
 62
0
 70
0
 66
1
 10
0.0
 20
0.0
 30
0.0
  0
VERTEX
  8
0
 10
-10.379025766574602
 20
5.130752038280032
 30
0.0
  0
VERTEX
  8
0
 10
-12.204426513599639
 20
5.034018114831253
 30
0.0
  0
SEQEND
  8
0
  0
POLYLINE
  8
0
 62
0
 70
0
 66
1
 10
0.0
 20
0.0
 30
0.0
  0
VERTEX
  8
0
 10
-9.786049792656142
 20
4.987643483085185
 30
0.0
  0
VERTEX
  8
0
 10
-10.379025766574602
 20
5.130752038280032
 30
0.0
  0
SEQEND
  8
0
  0
LINE
  8
0
 62
0
 10
-8.051490273198814
 20
4.104692970318837
 30
0.0
 11
-9.786049792656142
 21
4.987643483085185
 31
0.0
  0
ARC
  8
0
 62
0
 10
-7.67677907760369
 20
4.839687201517742
 30
0.0
 40
0.8249999999999981
 50
-117.01317605940191
 51
-32.44347731360675
  0
ARC
  8
0
 62
0
 10
4.254399999999999e-13
 20
-3.139700000000002e-13
 30
0.0
 40
8.25000000000053
 50
140.20716008301056
 51
147.7928399169893
  0
ARC
  8
0
 62
0
 10
-6.975071246875277
 20
5.805505173185379
 30
0.0
 40
0.8250000000000006
 50
-39.556522686393095
 51
45.01317605940177
  0
LINE
  8
0
 62
0
 10
-7.767586529275394
 20
7.765819825937689
 30
0.0
 11
-6.391842321275657
 21
6.38900240569288
 31
0.0
  0
POLYLINE
  8
0
 62
0
 70
0
 66
1
 10
0.0
 20
0.0
 30
0.0
  0
VERTEX
  8
0
 10
-8.086930506427878
 20
8.285550514343655
 30
0.0
  0
VERTEX
  8
0
 10
-7.767586529275394
 20
7.765819825937689
 30
0.0
  0
SEQEND
  8
0
  0
POLYLINE
  8
0
 62
0
 70
0
 66
1
 10
0.0
 20
0.0
 30
0.0
  0
VERTEX
  8
0
 10
-8.559010930560579
 20
10.051502215930093
 30
0.0
  0
VERTEX
  8
0
 10
-8.086930506427878
 20
8.285550514343655
 30
0.0
  0
SEQEND
  8
0
  0
ARC
  8
0
 62
0
 10
-0.0011022829175191295
 20
0.0015171622789376105
 30
0.0
 40
13.200000000000585
 50
121.58446091162097
 51
130.41553908837915
  0
POLYLINE
  8
0
 62
0
 70
0
 66
1
 10
0.0
 20
0.0
 30
0.0
  0
VERTEX
  8
0
 10
-5.38102784894377
 20
10.251503871648579
 30
0.0
  0
VERTEX
  8
0
 10
-6.914666848431331
 20
11.246188122270931
 30
0.0
  0
SEQEND
  8
0
  0
POLYLINE
  8
0
 62
0
 70
0
 66
1
 10
0.0
 20
0.0
 30
0.0
  0
VERTEX
  8
0
 10
-4.985417307008115
 20
9.787184086022465
 30
0.0
  0
VERTEX
  8
0
 10
-5.38102784894377
 20
10.251503871648579
 30
0.0
  0
SEQEND
  8
0
  0
LINE
  8
0
 62
0
 10
-4.101114467920431
 20
8.05331361124188
 30
0.0
 11
-4.985417307008115
 21
9.787184086022465
 31
0.0
  0
ARC
  8
0
 62
0
 10
-3.3659479730826587
 20
8.42768672040965
 30
0.0
 40
0.8249999999999998
 50
-153.0131760594019
 51
-68.44347731360686
  0
ARC
  8
0
 62
0
 10
5.706999999999994e-14
 20
-1.8385000000000002e-13
 30
0.0
 40
8.250000000000192
 50
104.20716008301041
 51
111.79283991698952
  0
ARC
  8
0
 62
0
 10
-2.230560852792125
 20
8.796596358641201
 30
0.0
 40
0.8249999999999988
 50
-75.55652268639324
 51
9.013176059401896
  0
LINE
  8
0
 62
0
 10
-1.7194751418150351
 20
10.848353022251239
 30
0.0
 11
-1.415747672349611
 21
8.925842174732681
 31
0.0
  0
POLYLINE
  8
0
 62
0
 70
0
 66
1
 10
0.0
 20
0.0
 30
0.0
  0
VERTEX
  8
0
 10
-1.6723398125738396
 20
11.456529661848508
 30
0.0
  0
VERTEX
  8
0
 10
-1.7194751418150351
 20
10.848353022251239
 30
0.0
  0
SEQEND
  8
0
  0
POLYLINE
  8
0
 62
0
 70
0
 66
1
 10
0.0
 20
0.0
 30
0.0
  0
VERTEX
  8
0
 10
-1.0162605319556195
 20
13.162696510878472
 30
0.0
  0
VERTEX
  8
0
 10
-1.6723398125738396
 20
11.456529661848508
 30
0.0
  0
SEQEND
  8
0
  0
ARC
  8
0
 62
0
 10
6.246056035891879e-19
 20
0.00187531570905186
 30
0.0
 40
13.20000000000119
 50
85.58446091162111
 51
94.41553908837889
  0
POLYLINE
  8
0
 62
0
 70
0
 66
1
 10
0.0
 20
0.0
 30
0.0
  0
VERTEX
  8
0
 10
1.6723398125738471
 20
11.456529661848508
 30
0.0
  0
VERTEX
  8
0
 10
1.0162605319556284
 20
13.162696510878472
 30
0.0
  0
SEQEND
  8
0
  0
CIRCLE
  8
0
 62
0
 10
0.0
 20
0.0
 30
0.0
 40
1.6
  0
ARC
  8
0
 62
0
 10
3.365947973082667
 20
8.427686720409644
 30
0.0
 40
0.8249999999999984
 50
-58.25608105819273
 51
-26.986823940598136
  0
LINE
  8
0
 62
0
 10
4.985417307008125
 20
9.78718408602246
 30
0.0
 11
4.101114467920438
 21
8.053313611241874
 31
0.0
  0
POLYLINE
  8
0
 62
0
 70
0
 66
1
 10
0.0
 20
0.0
 30
0.0
  0
VERTEX
  8
0
 10
5.381027848943781
 20
10.251503871648575
 30
0.0
  0
VERTEX
  8
0
 10
4.985417307008125
 20
9.78718408602246
 30
0.0
  0
SEQEND
  8
0
  0
POLYLINE
  8
0
 62
0
 70
0
 66
1
 10
0.0
 20
0.0
 30
0.0
  0
VERTEX
  8
0
 10
6.914666848431342
 20
11.246188122270926
 30
0.0
  0
VERTEX
  8
0
 10
5.381027848943781
 20
10.251503871648575
 30
0.0
  0
SEQEND
  8
0
  0
ARC
  8
0
 62
0
 10
0.0011022829174960305
 20
0.0015171622788976396
 30
0.0
 40
13.200000000000633
 50
49.58446091162088
 51
58.415539088378985
  0
POLYLINE
  8
0
 62
0
 70
0
 66
1
 10
0.0
 20
0.0
 30
0.0
  0
VERTEX
  8
0
 10
8.086930506427887
 20
8.285550514343644
 30
0.0
  0
VERTEX
  8
0
 10
8.55901093056059
 20
10.051502215930084
 30
0.0
  0
SEQEND
  8
0
  0
POLYLINE
  8
0
 62
0
 70
0
 66
1
 10
0.0
 20
0.0
 30
0.0
  0
VERTEX
  8
0
 10
7.767586529275402
 20
7.765819825937682
 30
0.0
  0
VERTEX
  8
0
 10
8.086930506427887
 20
8.285550514343644
 30
0.0
  0
SEQEND
  8
0
  0
LINE
  8
0
 62
0
 10
6.3918423212756625
 20
6.389002405692876
 30
0.0
 11
7.767586529275402
 21
7.765819825937683
 31
0.0
  0
ARC
  8
0
 62
0
 10
6.975071246875279
 20
5.805505173185373
 30
0.0
 40
0.8249999999999988
 50
134.98682394059801
 51
-140.4434773136068
  0
ARC
  8
0
 62
0
 10
-2.7489000000000005e-13
 20
-2.0738999999999989e-13
 30
0.0
 40
8.250000000000345
 50
32.20716008301055
 51
39.79283991698947
  0
ARC
  8
0
 62
0
 10
7.676779077603696
 20
4.839687201517738
 30
0.0
 40
0.8250000000000011
 50
-147.55652268639312
 51
-62.986823940598356
  0
LINE
  8
0
 62
0
 10
9.786049792656147
 20
4.987643483085176
 30
0.0
 11
8.051490273198818
 21
4.104692970318828
 31
0.0
  0
POLYLINE
  8
0
 62
0
 70
0
 66
1
 10
0.0
 20
0.0
 30
0.0
  0
VERTEX
  8
0
 10
10.379025766574607
 20
5.130752038280023
 30
0.0
  0
VERTEX
  8
0
 10
9.786049792656147
 20
4.987643483085176
 30
0.0
  0
SEQEND
  8
0
  0
POLYLINE
  8
0
 62
0
 70
0
 66
1
 10
0.0
 20
0.0
 30
0.0
  0
VERTEX
  8
0
 10
12.204426513599644
 20
5.034018114831241
 30
0.0
  0
VERTEX
  8
0
 10
10.379025766574607
 20
5.130752038280023
 30
0.0
  0
SEQEND
  8
0
  0
ARC
  8
0
 62
0
 10
0.0017835312260743301
 20
0.0005795044241947394
 30
0.0
 40
13.20000000000028
 50
13.58446091162082
 51
22.415539088379155
  0
POLYLINE
  8
0
 62
0
 70
0
 66
1
 10
0.0
 20
0.0
 30
0.0
  0
VERTEX
  8
0
 10
11.41258861148487
 20
1.9497726858636832
 30
0.0
  0
VERTEX
  8
0
 10
12.832510063773269
 20
3.1009757124912904
 30
0.0
  0
SEQEND
  8
0
  0
POLYLINE
  8
0
 62
0
 70
0
 66
1
 10
0.0
 20
0.0
 30
0.0
  0
VERTEX
  8
0
 10
10.848743873108385
 20
1.7170074066237233
 30
0.0
  0
VERTEX
  8
0
 10
11.41258861148487
 20
1.9497726858636832
 30
0.0
  0
SEQEND
  8
0
  0
LINE
  8
0
 62
0
 10
8.926470454204427
 20
1.4117808718832372
 30
0.0
 11
10.848743873108385
 21
1.7170074066237233
 31
0.0
  0
ARC
  8
0
 62
0
 10
9.055341498604177
 20
0.5969083334360791
 30
0.0
 40
0.8249999999999981
 50
98.98682394059806
 51
-176.44347731360676
  0
ARC
  8
0
 62
0
 10
-6.839e-13
 20
-1.4399999999997721e-15
 30
0.0
 40
8.250000000000684
 50
-0.0
 51
3.792839916989355
  0
LINE
  8
0
 62
0
 10
8.250000000000005
 20
-2.747801985947264e-15
 30
0.0
 11
3.8000000000000007
 21
-1.2656542480726783e-15
 31
0.0
  0
ARC
  8
0
 62
0
 10
-6.839e-13
 20
-1.4399999999997721e-15
 30
0.0
 40
8.250000000000684
 50
-3.792839916989355
 51
-0.0
  0
ARC
  8
0
 62
0
 10
9.055341498604175
 20
-0.5969083334360881
 30
0.0
 40
0.8249999999999966
 50
176.44347731360676
 51
-98.98682394059794
  0
LINE
  8
0
 62
0
 10
10.848743873108383
 20
-1.7170074066237342
 30
0.0
 11
8.926470454204427
 21
-1.4117808718832454
 31
0.0
  0
POLYLINE
  8
0
 62
0
 70
0
 66
1
 10
0.0
 20
0.0
 30
0.0
  0
VERTEX
  8
0
 10
11.412588611484868
 20
-1.9497726858636946
 30
0.0
  0
VERTEX
  8
0
 10
10.848743873108383
 20
-1.7170074066237342
 30
0.0
  0
SEQEND
  8
0
  0
POLYLINE
  8
0
 62
0
 70
0
 66
1
 10
0.0
 20
0.0
 30
0.0
  0
VERTEX
  8
0
 10
12.832510063773263
 20
-3.100975712491304
 30
0.0
  0
VERTEX
  8
0
 10
11.412588611484868
 20
-1.9497726858636946
 30
0.0
  0
SEQEND
  8
0
  0
ARC
  8
0
 62
0
 10
0.0017835312256835297
 20
-0.0005795044240724006
 30
0.0
 40
13.200000000000687
 50
-13.738355022050271
 51
-13.584460911620981
  0
LINE
  8
0
 62
0
 10
3.8000000000000025
 20
7.726100062947463
 30
0.0
 11
3.8000000000000034
 21
9.999999999999998
 31
0.0
  0
LINE
  8
0
 62
0
 10
12.824136254105024
 20
-3.1354272918118906
 30
0.0
 11
12.833096999999999
 21
-3.135322000000005
 31
0.0
  0
LINE
  8
0
 62
0
 10
4.353506432181666
 20
42.448712676837374
 30
0.0
 11
13.200000000000005
 21
17.999999999999996
 31
0.0
  0
LINE
  8
0
 62
0
 10
-10.999999999999984
 20
50.00000000000001
 30
0.0
 11
4.353506432181668
 21
42.448712676837374
 31
0.0
  0
LINE
  8
0
 62
0
 10
-10.999999999999984
 20
48.00000000000001
 30
0.0
 11
-10.999999999999982
 21
50.00000000000001
 31
0.0
  0
LINE
  8
0
 62
0
 10
-9.999999999999984
 20
48.0
 30
0.0
 11
-10.999999999999984
 21
48.0
 31
0.0
  0
LINE
  8
0
 62
0
 10
-9.999999999999984
 20
46.800000000000004
 30
0.0
 11
-9.999999999999984
 21
48.0
 31
0.0
  0
LINE
  8
0
 62
0
 10
-10.999999999999984
 20
46.80000000000001
 30
0.0
 11
-9.999999999999984
 21
46.80000000000001
 31
0.0
  0
LINE
  8
0
 62
0
 10
-10.999999999999984
 20
45.60000000000001
 30
0.0
 11
-10.999999999999984
 21
46.80000000000001
 31
0.0
  0
LINE
  8
0
 62
0
 10
-9.999999999999984
 20
45.6
 30
0.0
 11
-10.999999999999984
 21
45.6
 31
0.0
  0
LINE
  8
0
 62
0
 10
-9.999999999999986
 20
44.400000000000006
 30
0.0
 11
-9.999999999999986
 21
45.6
 31
0.0
  0
LINE
  8
0
 62
0
 10
-10.999999999999988
 20
44.40000000000001
 30
0.0
 11
-9.999999999999986
 21
44.40000000000001
 31
0.0
  0
LINE
  8
0
 62
0
 10
-10.999999999999986
 20
43.20000000000001
 30
0.0
 11
-10.999999999999984
 21
44.40000000000001
 31
0.0
  0
LINE
  8
0
 62
0
 10
-9.999999999999986
 20
43.2
 30
0.0
 11
-10.999999999999988
 21
43.2
 31
0.0
  0
LINE
  8
0
 62
0
 10
-9.999999999999986
 20
42.0
 30
0.0
 11
-9.999999999999986
 21
43.2
 31
0.0
  0
LINE
  8
0
 62
0
 10
-10.999999999999988
 20
42.00000000000001
 30
0.0
 11
-9.999999999999986
 21
42.00000000000001
 31
0.0
  0
LINE
  8
0
 62
0
 10
-10.999999999999986
 20
40.80000000000001
 30
0.0
 11
-10.999999999999986
 21
42.00000000000001
 31
0.0
  0
LINE
  8
0
 62
0
 10
-9.999999999999986
 20
40.800000000000004
 30
0.0
 11
-10.999999999999988
 21
40.800000000000004
 31
0.0
  0
LINE
  8
0
 62
0
 10
-9.999999999999988
 20
39.6
 30
0.0
 11
-9.999999999999988
 21
40.800000000000004
 31
0.0
  0
LINE
  8
0
 62
0
 10
-10.999999999999988
 20
39.60000000000001
 30
0.0
 11
-9.999999999999988
 21
39.60000000000001
 31
0.0
  0
LINE
  8
0
 62
0
 10
-10.999999999999988
 20
38.40000000000001
 30
0.0
 11
-10.999999999999986
 21
39.60000000000001
 31
0.0
  0
LINE
  8
0
 62
0
 10
-9.999999999999988
 20
38.400000000000006
 30
0.0
 11
-10.999999999999988
 21
38.400000000000006
 31
0.0
  0
LINE
  8
0
 62
0
 10
-9.999999999999988
 20
37.2
 30
0.0
 11
-9.999999999999988
 21
38.400000000000006
 31
0.0
  0
LINE
  8
0
 62
0
 10
-10.999999999999988
 20
37.20000000000001
 30
0.0
 11
-9.999999999999988
 21
37.20000000000001
 31
0.0
  0
LINE
  8
0
 62
0
 10
-10.999999999999988
 20
36.00000000000001
 30
0.0
 11
-10.999999999999988
 21
37.20000000000001
 31
0.0
  0
LINE
  8
0
 62
0
 10
-0.9312300618183631
 20
31.89257053144221
 30
0.0
 11
-10.99999999999999
 21
36.00000000000001
 31
0.0
  0
LINE
  8
0
 62
0
 10
4.853015732524398
 20
15.906873781202378
 30
0.0
 11
-0.9312300618183622
 21
31.89257053144221
 31
0.0
  0
LINE
  8
0
 62
0
 10
3.8000000000000034
 20
9.999999999999998
 30
0.0
 11
4.853015732524398
 21
15.906873781202378
 31
0.0
  0
LINE
  8
0
 62
0
 10
13.171922999999996
 20
-4.387131657956898e-15
 30
0.0
 11
8.250000000000005
 21
-2.747801985947264e-15
 31
0.0
  0
LINE
  8
0
 62
0
 10
13.2
 20
-4.396483177515619e-15
 30
0.0
 11
13.171922999999996
 21
-4.387131657956898e-15
 31
0.0
  0
LINE
  8
0
 62
0
 10
13.200000000000005
 20
17.999999999999996
 30
0.0
 11
13.2
 21
-3.552713678800501e-15
 31
0.0
  0
CIRCLE
  8
0
 62
0
 10
7.800000000000007
 20
20.999999999999996
 30
0.0
 40
1.55
  0
CIRCLE
  8
0
 62
0
 10
3.0000000000000115
 20
34.0
 30
0.0
 40
1.55
  0
LINE
  8
0
 62
0
 10
13.171923
 20
-4.3871316579569e-15
 30
0.0
 11
12.833096999999999
 21
-3.1353220000000053
 31
0.0
  0
ENDBLK
  0
ENDSEC
  0
SECTION
  2
ENTITIES
  0
INSERT
  2
POCKET001
  8
0
 62
0
 10
0.0
 20
0.0
 30
0.0
  0
ENDSEC
  0
EOF
