  0
SECTION
  2
HEADER
  9
$ACADVER
  1
AC1009
  9
$INSBASE
 10
0.0
 20
0.0
 30
0.0
  9
$EXTMIN
 10
0.0
 20
0.0
 30
0.0
  9
$EXTMAX
 10
0.0
 20
0.0
 30
0.0
  0
ENDSEC
  0
SECTION
  2
TABLES
  0
TABLE
  2
VPORT
 70
0
  0
ENDTAB
  0
TABLE
  2
LTYPE
 70
1
  0
LTYPE
  2
CONTINUOUS
 70
0
  3
Solid line
 72
65
 73
0
 40
0.0
  0
ENDTAB
  0
TABLE
  2
LAYER
 70
1
  0
LAYER
  2
0
 70
64
 62
7
  6
continuous
  0
ENDTAB
  0
TABLE
  2
STYLE
 70
1
  0
STYLE
  2
STANDARD
 70
0
 40
0
 41
1.0
 50
0.0
 71
0
 42
1
 3
ARIAL.TTF
 4

  0
ENDTAB
  0
TABLE
  2
VIEW
 70
0
  0
ENDTAB
  0
ENDSEC
  0
SECTION
  2
BLOCKS
  0
BLOCK
  8
0
  2
FILLET
 70
0
 10
0.0
 20
0.0
 30
0.0
  3
FILLET
  0
LINE
  8
0
 62
0
 10
-13.200000000000001
 20
18.0
 30
0.0
 11
-13.200000000000001
 21
16.61956678135745
 31
0.0
  0
ARC
  8
0
 62
0
 10
0.0
 20
0.0
 30
0.0
 40
16.5
 50
107.02097690470602
 51
121.53887265353413
  0
ARC
  8
0
 62
0
 10
-10.200000000000001
 20
16.61956678135745
 30
0.0
 40
3.0
 50
-180.0
 51
-58.46112734646597
  0
LINE
  8
0
 62
0
 10
-4.853015732524392
 20
15.906873781202382
 30
0.0
 11
-4.829909760121496
 21
15.77726122332667
 31
0.0
  0
LINE
  8
0
 62
0
 10
-4.853015732524392
 20
15.906873781202382
 30
0.0
 11
0.9312300618183702
 21
31.892570531442203
 31
0.0
  0
LINE
  8
0
 62
0
 10
-4.353506432181659
 20
42.44871267683738
 30
0.0
 11
-13.200000000000001
 21
18.0
 31
0.0
  0
LINE
  8
0
 62
0
 10
0.9312300618183702
 20
31.892570531442203
 30
0.0
 11
11.0
 21
36.0
 31
0.0
  0
LINE
  8
0
 62
0
 10
11.0
 20
50.0
 30
0.0
 11
-4.353506432181659
 21
42.44871267683738
 31
0.0
  0
LINE
  8
0
 62
0
 10
11.0
 20
36.0
 30
0.0
 11
11.0
 21
37.2
 31
0.0
  0
LINE
  8
0
 62
0
 10
11.0
 20
48.0
 30
0.0
 11
11.0
 21
50.0
 31
0.0
  0
LINE
  8
0
 62
0
 10
10.0
 20
37.2
 30
0.0
 11
11.0
 21
37.2
 31
0.0
  0
LINE
  8
0
 62
0
 10
11.0
 20
48.0
 30
0.0
 11
10.0
 21
48.0
 31
0.0
  0
LINE
  8
0
 62
0
 10
10.0
 20
38.400000000000006
 30
0.0
 11
10.0
 21
37.2
 31
0.0
  0
LINE
  8
0
 62
0
 10
10.0
 20
48.0
 30
0.0
 11
10.0
 21
46.800000000000004
 31
0.0
  0
LINE
  8
0
 62
0
 10
11.0
 20
38.400000000000006
 30
0.0
 11
10.0
 21
38.400000000000006
 31
0.0
  0
LINE
  8
0
 62
0
 10
10.0
 20
46.800000000000004
 30
0.0
 11
11.0
 21
46.800000000000004
 31
0.0
  0
LINE
  8
0
 62
0
 10
11.0
 20
38.400000000000006
 30
0.0
 11
11.0
 21
39.6
 31
0.0
  0
LINE
  8
0
 62
0
 10
11.0
 20
45.6
 30
0.0
 11
11.0
 21
46.800000000000004
 31
0.0
  0
LINE
  8
0
 62
0
 10
10.0
 20
39.6
 30
0.0
 11
11.0
 21
39.6
 31
0.0
  0
LINE
  8
0
 62
0
 10
11.0
 20
45.6
 30
0.0
 11
10.0
 21
45.6
 31
0.0
  0
LINE
  8
0
 62
0
 10
10.0
 20
40.800000000000004
 30
0.0
 11
10.0
 21
39.6
 31
0.0
  0
LINE
  8
0
 62
0
 10
10.0
 20
45.6
 30
0.0
 11
10.0
 21
44.400000000000006
 31
0.0
  0
LINE
  8
0
 62
0
 10
11.0
 20
40.800000000000004
 30
0.0
 11
10.0
 21
40.800000000000004
 31
0.0
  0
LINE
  8
0
 62
0
 10
10.0
 20
44.400000000000006
 30
0.0
 11
11.0
 21
44.400000000000006
 31
0.0
  0
LINE
  8
0
 62
0
 10
11.0
 20
40.800000000000004
 30
0.0
 11
11.0
 21
42.0
 31
0.0
  0
LINE
  8
0
 62
0
 10
11.0
 20
43.2
 30
0.0
 11
11.0
 21
44.400000000000006
 31
0.0
  0
LINE
  8
0
 62
0
 10
10.0
 20
42.0
 30
0.0
 11
11.0
 21
42.0
 31
0.0
  0
LINE
  8
0
 62
0
 10
11.0
 20
43.2
 30
0.0
 11
10.0
 21
43.2
 31
0.0
  0
LINE
  8
0
 62
0
 10
10.0
 20
43.2
 30
0.0
 11
10.0
 21
42.0
 31
0.0
  0
CIRCLE
  8
0
 62
0
 10
-7.8
 20
21.0
 30
0.0
 40
1.55
  0
CIRCLE
  8
0
 62
0
 10
-3.0
 20
34.0
 30
0.0
 40
1.55
  0
ENDBLK
  0
ENDSEC
  0
SECTION
  2
ENTITIES
  0
INSERT
  2
FILLET
  8
0
 62
0
 10
0.0
 20
0.0
 30
0.0
  0
ENDSEC
  0
EOF
