  0
SECTION
  2
HEADER
  9
$ACADVER
  1
AC1009
  9
$INSBASE
 10
0.0
 20
0.0
 30
0.0
  9
$EXTMIN
 10
0.0
 20
0.0
 30
0.0
  9
$EXTMAX
 10
0.0
 20
0.0
 30
0.0
  0
ENDSEC
  0
SECTION
  2
TABLES
  0
TABLE
  2
VPORT
 70
0
  0
ENDTAB
  0
TABLE
  2
LTYPE
 70
1
  0
LTYPE
  2
CONTINUOUS
 70
0
  3
Solid line
 72
65
 73
0
 40
0.0
  0
ENDTAB
  0
TABLE
  2
LAYER
 70
1
  0
LAYER
  2
0
 70
64
 62
7
  6
continuous
  0
ENDTAB
  0
TABLE
  2
STYLE
 70
1
  0
STYLE
  2
STANDARD
 70
0
 40
0
 41
1.0
 50
0.0
 71
0
 42
1
 3
ARIAL.TTF
 4

  0
ENDTAB
  0
TABLE
  2
VIEW
 70
0
  0
ENDTAB
  0
ENDSEC
  0
SECTION
  2
BLOCKS
  0
BLOCK
  8
0
  2
POCKET002
 70
0
 10
0.0
 20
0.0
 30
0.0
  3
POCKET002
  0
LINE
  8
0
 62
0
 10
8.925842174732681
 20
-1.4157476723496139
 30
0.0
 11
10.848353022251239
 21
-1.7194751418150387
 31
0.0
  0
ARC
  8
0
 62
0
 10
8.796596358641203
 20
-2.230560852792131
 30
0.0
 40
0.8249999999999998
 50
80.9868239405981
 51
165.5565226863932
  0
POLYLINE
  8
0
 62
0
 70
0
 66
1
 10
0.0
 20
0.0
 30
0.0
  0
VERTEX
  8
0
 10
10.848353022251239
 20
-1.7194751418150387
 30
0.0
  0
VERTEX
  8
0
 10
11.456529661848508
 20
-1.6723398125738433
 30
0.0
  0
SEQEND
  8
0
  0
ARC
  8
0
 62
0
 10
-1.4504e-12
 20
4.7429e-13
 30
0.0
 40
8.250000000001524
 50
-21.79283991698896
 51
-14.2071600830111
  0
ARC
  8
0
 62
0
 10
8.427686720409646
 20
-3.3659479730826645
 30
0.0
 40
0.8249999999999984
 50
158.44347731360673
 51
-116.98682394059817
  0
LINE
  8
0
 62
0
 10
9.787184086022462
 20
-4.985417307008121
 30
0.0
 11
8.053313611241876
 21
-4.101114467920436
 31
0.0
  0
POLYLINE
  8
0
 62
0
 70
0
 66
1
 10
0.0
 20
0.0
 30
0.0
  0
VERTEX
  8
0
 10
10.251503871648577
 20
-5.381027848943777
 30
0.0
  0
VERTEX
  8
0
 10
9.787184086022462
 20
-4.985417307008121
 30
0.0
  0
SEQEND
  8
0
  0
POLYLINE
  8
0
 62
0
 70
0
 66
1
 10
0.0
 20
0.0
 30
0.0
  0
VERTEX
  8
0
 10
11.246188122270928
 20
-6.914666848431338
 30
0.0
  0
VERTEX
  8
0
 10
10.251503871648577
 20
-5.381027848943777
 30
0.0
  0
SEQEND
  8
0
  0
ARC
  8
0
 62
0
 10
0.00151716227889764
 20
-0.00110228291749603
 30
0.0
 40
13.200000000000633
 50
-40.41553908837911
 51
-31.584460911620997
  0
POLYLINE
  8
0
 62
0
 70
0
 66
1
 10
0.0
 20
0.0
 30
0.0
  0
VERTEX
  8
0
 10
8.285550514343647
 20
-8.086930506427883
 30
0.0
  0
VERTEX
  8
0
 10
10.051502215930087
 20
-8.559010930560586
 30
0.0
  0
SEQEND
  8
0
  0
POLYLINE
  8
0
 62
0
 70
0
 66
1
 10
0.0
 20
0.0
 30
0.0
  0
VERTEX
  8
0
 10
7.765819825937685
 20
-7.767586529275399
 30
0.0
  0
VERTEX
  8
0
 10
8.285550514343647
 20
-8.086930506427883
 30
0.0
  0
SEQEND
  8
0
  0
LINE
  8
0
 62
0
 10
6.389002405692878
 20
-6.391842321275661
 30
0.0
 11
7.765819825937685
 21
-7.767586529275399
 31
0.0
  0
ARC
  8
0
 62
0
 10
5.8055051731853755
 20
-6.975071246875277
 30
0.0
 40
0.8249999999999988
 50
44.98682394059806
 51
129.5565226863932
  0
ARC
  8
0
 62
0
 10
-2.0739e-13
 20
2.7489e-13
 30
0.0
 40
8.250000000000345
 50
-57.79283991698943
 51
-50.207160083010514
  0
ARC
  8
0
 62
0
 10
4.839687201517741
 20
-7.676779077603694
 30
0.0
 40
0.8250000000000011
 50
122.44347731360693
 51
-152.98682394059836
  0
LINE
  8
0
 62
0
 10
4.987643483085179
 20
-9.786049792656145
 30
0.0
 11
4.1046929703188315
 21
-8.051490273198816
 31
0.0
  0
POLYLINE
  8
0
 62
0
 70
0
 66
1
 10
0.0
 20
0.0
 30
0.0
  0
VERTEX
  8
0
 10
5.1307520382800265
 20
-10.379025766574605
 30
0.0
  0
VERTEX
  8
0
 10
4.987643483085179
 20
-9.786049792656145
 30
0.0
  0
SEQEND
  8
0
  0
POLYLINE
  8
0
 62
0
 70
0
 66
1
 10
0.0
 20
0.0
 30
0.0
  0
VERTEX
  8
0
 10
5.0340181148312455
 20
-12.204426513599643
 30
0.0
  0
VERTEX
  8
0
 10
5.1307520382800265
 20
-10.379025766574605
 30
0.0
  0
SEQEND
  8
0
  0
ARC
  8
0
 62
0
 10
0.00057950442419474
 20
-0.00178353122607433
 30
0.0
 40
13.20000000000028
 50
-76.41553908837919
 51
-67.58446091162084
  0
POLYLINE
  8
0
 62
0
 70
0
 66
1
 10
0.0
 20
0.0
 30
0.0
  0
VERTEX
  8
0
 10
1.949772685863687
 20
-11.41258861148487
 30
0.0
  0
VERTEX
  8
0
 10
3.100975712491295
 20
-12.832510063773267
 30
0.0
  0
SEQEND
  8
0
  0
POLYLINE
  8
0
 62
0
 70
0
 66
1
 10
0.0
 20
0.0
 30
0.0
  0
VERTEX
  8
0
 10
1.7170074066237269
 20
-10.848743873108385
 30
0.0
  0
VERTEX
  8
0
 10
1.949772685863687
 20
-11.41258861148487
 30
0.0
  0
SEQEND
  8
0
  0
LINE
  8
0
 62
0
 10
1.41178087188324
 20
-8.926470454204427
 30
0.0
 11
1.7170074066237269
 21
-10.848743873108385
 31
0.0
  0
ARC
  8
0
 62
0
 10
0.5969083334360821
 20
-9.055341498604177
 30
0.0
 40
0.8249999999999981
 50
8.986823940598038
 51
93.55652268639325
  0
ARC
  8
0
 62
0
 10
-1.44e-15
 20
6.839e-13
 30
0.0
 40
8.250000000000684
 50
-93.79283991698932
 51
-86.20716008301068
  0
ARC
  8
0
 62
0
 10
-0.5969083334360851
 20
-9.055341498604175
 30
0.0
 40
0.8249999999999966
 50
86.4434773136067
 51
171.0131760594021
  0
LINE
  8
0
 62
0
 10
-1.7170074066237306
 20
-10.848743873108383
 30
0.0
 11
-1.4117808718832425
 21
-8.926470454204427
 31
0.0
  0
POLYLINE
  8
0
 62
0
 70
0
 66
1
 10
0.0
 20
0.0
 30
0.0
  0
VERTEX
  8
0
 10
-1.9497726858636908
 20
-11.412588611484868
 30
0.0
  0
VERTEX
  8
0
 10
-1.7170074066237306
 20
-10.848743873108383
 30
0.0
  0
SEQEND
  8
0
  0
POLYLINE
  8
0
 62
0
 70
0
 66
1
 10
0.0
 20
0.0
 30
0.0
  0
VERTEX
  8
0
 10
-3.1009757124912998
 20
-12.832510063773265
 30
0.0
  0
VERTEX
  8
0
 10
-1.9497726858636908
 20
-11.412588611484868
 30
0.0
  0
SEQEND
  8
0
  0
ARC
  8
0
 62
0
 10
-0.0005795044240724
 20
-0.00178353122568353
 30
0.0
 40
13.200000000000687
 50
-112.41553908837905
 51
-103.58446091162098
  0
POLYLINE
  8
0
 62
0
 70
0
 66
1
 10
0.0
 20
0.0
 30
0.0
  0
VERTEX
  8
0
 10
-5.13075203828003
 20
-10.379025766574603
 30
0.0
  0
VERTEX
  8
0
 10
-5.03401811483125
 20
-12.20442651359964
 30
0.0
  0
SEQEND
  8
0
  0
POLYLINE
  8
0
 62
0
 70
0
 66
1
 10
0.0
 20
0.0
 30
0.0
  0
VERTEX
  8
0
 10
-4.987643483085182
 20
-9.786049792656144
 30
0.0
  0
VERTEX
  8
0
 10
-5.13075203828003
 20
-10.379025766574603
 30
0.0
  0
SEQEND
  8
0
  0
LINE
  8
0
 62
0
 10
-4.104692970318835
 20
-8.051490273198816
 30
0.0
 11
-4.987643483085182
 21
-9.786049792656144
 31
0.0
  0
ARC
  8
0
 62
0
 10
-4.839687201517739
 20
-7.67677907760369
 30
0.0
 40
0.8249999999999981
 50
-27.01317605940201
 51
57.556522686393286
  0
ARC
  8
0
 62
0
 10
6.7679e-13
 20
9.3525e-13
 30
0.0
 40
8.250000000001153
 50
-129.7928399169891
 51
-122.20716008301089
  0
ARC
  8
0
 62
0
 10
-5.805505173185377
 20
-6.975071246875278
 30
0.0
 40
0.8250000000000014
 50
50.44347731360691
 51
135.01317605940173
  0
LINE
  8
0
 62
0
 10
-7.765819825937687
 20
-7.767586529275396
 30
0.0
 11
-6.389002405692879
 21
-6.391842321275657
 31
0.0
  0
POLYLINE
  8
0
 62
0
 70
0
 66
1
 10
0.0
 20
0.0
 30
0.0
  0
VERTEX
  8
0
 10
-8.285550514343651
 20
-8.08693050642788
 30
0.0
  0
VERTEX
  8
0
 10
-7.765819825937687
 20
-7.767586529275396
 30
0.0
  0
SEQEND
  8
0
  0
POLYLINE
  8
0
 62
0
 70
0
 66
1
 10
0.0
 20
0.0
 30
0.0
  0
VERTEX
  8
0
 10
-10.051502215930089
 20
-8.559010930560582
 30
0.0
  0
VERTEX
  8
0
 10
-8.285550514343651
 20
-8.08693050642788
 30
0.0
  0
SEQEND
  8
0
  0
ARC
  8
0
 62
0
 10
-0.00151716227987198
 20
-0.00110228291820347
 30
0.0
 40
13.199999999999429
 50
-148.41553908837943
 51
-139.58446091162054
  0
POLYLINE
  8
0
 62
0
 70
0
 66
1
 10
0.0
 20
0.0
 30
0.0
  0
VERTEX
  8
0
 10
-10.251503871648577
 20
-5.381027848943772
 30
0.0
  0
VERTEX
  8
0
 10
-11.24618812227093
 20
-6.914666848431334
 30
0.0
  0
SEQEND
  8
0
  0
POLYLINE
  8
0
 62
0
 70
0
 66
1
 10
0.0
 20
0.0
 30
0.0
  0
VERTEX
  8
0
 10
-9.787184086022464
 20
-4.985417307008118
 30
0.0
  0
VERTEX
  8
0
 10
-10.251503871648577
 20
-5.381027848943772
 30
0.0
  0
SEQEND
  8
0
  0
LINE
  8
0
 62
0
 10
-8.053313611241878
 20
-4.101114467920433
 30
0.0
 11
-9.787184086022464
 21
-4.985417307008118
 31
0.0
  0
ARC
  8
0
 62
0
 10
-8.427686720409648
 20
-3.3659479730826605
 30
0.0
 40
0.8249999999999998
 50
-63.0131760594019
 51
21.556522686393162
  0
ARC
  8
0
 62
0
 10
1.8385e-13
 20
5.795e-14
 30
0.0
 40
8.250000000000192
 50
-165.79283991698958
 51
-158.20716008301048
  0
ARC
  8
0
 62
0
 10
-8.796596358641201
 20
-2.230560852792128
 30
0.0
 40
0.8249999999999994
 50
14.443477313606845
 51
99.01317605940191
  0
LINE
  8
0
 62
0
 10
-10.848353022251239
 20
-1.7194751418150374
 30
0.0
 11
-8.925842174732681
 21
-1.4157476723496127
 31
0.0
  0
POLYLINE
  8
0
 62
0
 70
0
 66
1
 10
0.0
 20
0.0
 30
0.0
  0
VERTEX
  8
0
 10
-11.456529661848508
 20
-1.672339812573842
 30
0.0
  0
VERTEX
  8
0
 10
-10.848353022251239
 20
-1.7194751418150374
 30
0.0
  0
SEQEND
  8
0
  0
POLYLINE
  8
0
 62
0
 70
0
 66
1
 10
0.0
 20
0.0
 30
0.0
  0
VERTEX
  8
0
 10
-13.162696510878472
 20
-1.0162605319556224
 30
0.0
  0
VERTEX
  8
0
 10
-11.456529661848508
 20
-1.672339812573842
 30
0.0
  0
SEQEND
  8
0
  0
ARC
  8
0
 62
0
 10
-0.00187531570905186
 20
1.55e-15
 30
0.0
 40
13.20000000000119
 50
179.0341870987346
 51
-175.58446091162108
  0
LINE
  8
0
 62
0
 10
-13.200000000000001
 20
0.22249678186805966
 30
0.0
 11
-13.200000000000001
 21
0.0
 31
0.0
  0
LINE
  8
0
 62
0
 10
-13.200000000000001
 20
0.0
 30
0.0
 11
-3.799999999999999
 21
0.0
 31
0.0
  0
LINE
  8
0
 62
0
 10
-3.8
 20
10.0
 30
0.0
 11
-3.8
 21
0.0
 31
0.0
  0
LINE
  8
0
 62
0
 10
-4.245766397078735
 20
12.500518997121855
 30
0.0
 11
-3.8
 21
10.0
 31
0.0
  0
ARC
  8
0
 62
0
 10
-0.00057950442419652
 20
0.00178353122607433
 30
0.0
 40
13.20000000000028
 50
103.58446091162082
 51
108.76002037589097
  0
POLYLINE
  8
0
 62
0
 70
0
 66
1
 10
0.0
 20
0.0
 30
0.0
  0
VERTEX
  8
0
 10
-1.949772685863688
 20
11.41258861148487
 30
0.0
  0
VERTEX
  8
0
 10
-3.1009757124912967
 20
12.832510063773267
 30
0.0
  0
SEQEND
  8
0
  0
POLYLINE
  8
0
 62
0
 70
0
 66
1
 10
0.0
 20
0.0
 30
0.0
  0
VERTEX
  8
0
 10
-1.7170074066237282
 20
10.848743873108385
 30
0.0
  0
VERTEX
  8
0
 10
-1.949772685863688
 20
11.41258861148487
 30
0.0
  0
SEQEND
  8
0
  0
LINE
  8
0
 62
0
 10
-1.411780871883241
 20
8.926470454204427
 30
0.0
 11
-1.7170074066237282
 21
10.848743873108385
 31
0.0
  0
ARC
  8
0
 62
0
 10
-0.5969083334360827
 20
9.055341498604175
 30
0.0
 40
0.8249999999999981
 50
-171.0131760594021
 51
-86.44347731360676
  0
ARC
  8
0
 62
0
 10
5.6e-16
 20
-6.8567e-13
 30
0.0
 40
8.250000000000684
 50
86.20716008301068
 51
93.79283991698932
  0
ARC
  8
0
 62
0
 10
0.5969083334360837
 20
9.055341498604175
 30
0.0
 40
0.824999999999998
 50
-93.55652268639321
 51
-8.986823940597915
  0
LINE
  8
0
 62
0
 10
1.7170074066237293
 20
10.848743873108383
 30
0.0
 11
1.4117808718832416
 21
8.926470454204427
 31
0.0
  0
POLYLINE
  8
0
 62
0
 70
0
 66
1
 10
0.0
 20
0.0
 30
0.0
  0
VERTEX
  8
0
 10
1.9497726858636895
 20
11.412588611484868
 30
0.0
  0
VERTEX
  8
0
 10
1.7170074066237293
 20
10.848743873108383
 30
0.0
  0
SEQEND
  8
0
  0
POLYLINE
  8
0
 62
0
 70
0
 66
1
 10
0.0
 20
0.0
 30
0.0
  0
VERTEX
  8
0
 10
3.100975712491298
 20
12.832510063773265
 30
0.0
  0
VERTEX
  8
0
 10
1.9497726858636895
 20
11.412588611484868
 30
0.0
  0
SEQEND
  8
0
  0
ARC
  8
0
 62
0
 10
0.00057950442407062
 20
0.00178353122568353
 30
0.0
 40
13.200000000000687
 50
67.58446091162095
 51
76.415539088379
  0
POLYLINE
  8
0
 62
0
 70
0
 66
1
 10
0.0
 20
0.0
 30
0.0
  0
VERTEX
  8
0
 10
5.130752038280028
 20
10.379025766574603
 30
0.0
  0
VERTEX
  8
0
 10
5.034018114831248
 20
12.20442651359964
 30
0.0
  0
SEQEND
  8
0
  0
POLYLINE
  8
0
 62
0
 70
0
 66
1
 10
0.0
 20
0.0
 30
0.0
  0
VERTEX
  8
0
 10
4.987643483085181
 20
9.786049792656144
 30
0.0
  0
VERTEX
  8
0
 10
5.130752038280028
 20
10.379025766574603
 30
0.0
  0
SEQEND
  8
0
  0
LINE
  8
0
 62
0
 10
4.104692970318834
 20
8.051490273198816
 30
0.0
 11
4.987643483085181
 21
9.786049792656144
 31
0.0
  0
ARC
  8
0
 62
0
 10
4.839687201517739
 20
7.676779077603692
 30
0.0
 40
0.8249999999999981
 50
152.9868239405981
 51
-122.4434773136067
  0
ARC
  8
0
 62
0
 10
-3.1397e-13
 20
-4.2544e-13
 30
0.0
 40
8.25000000000053
 50
50.207160083010585
 51
57.792839916989344
  0
ARC
  8
0
 62
0
 10
5.805505173185376
 20
6.975071246875279
 30
0.0
 40
0.8250000000000006
 50
-129.55652268639304
 51
-44.98682394059823
  0
LINE
  8
0
 62
0
 10
7.765819825937687
 20
7.7675865292753965
 30
0.0
 11
6.389002405692878
 21
6.391842321275659
 31
0.0
  0
POLYLINE
  8
0
 62
0
 70
0
 66
1
 10
0.0
 20
0.0
 30
0.0
  0
VERTEX
  8
0
 10
8.285550514343651
 20
8.086930506427882
 30
0.0
  0
VERTEX
  8
0
 10
7.765819825937687
 20
7.7675865292753965
 30
0.0
  0
SEQEND
  8
0
  0
POLYLINE
  8
0
 62
0
 70
0
 66
1
 10
0.0
 20
0.0
 30
0.0
  0
VERTEX
  8
0
 10
10.051502215930089
 20
8.559010930560582
 30
0.0
  0
VERTEX
  8
0
 10
8.285550514343651
 20
8.086930506427882
 30
0.0
  0
SEQEND
  8
0
  0
ARC
  8
0
 62
0
 10
0.00151716227893761
 20
0.00110228291751913
 30
0.0
 40
13.200000000000585
 50
31.584460911620962
 51
40.415539088379155
  0
POLYLINE
  8
0
 62
0
 70
0
 66
1
 10
0.0
 20
0.0
 30
0.0
  0
VERTEX
  8
0
 10
10.251503871648577
 20
5.3810278489437735
 30
0.0
  0
VERTEX
  8
0
 10
11.24618812227093
 20
6.9146668484313345
 30
0.0
  0
SEQEND
  8
0
  0
POLYLINE
  8
0
 62
0
 70
0
 66
1
 10
0.0
 20
0.0
 30
0.0
  0
VERTEX
  8
0
 10
9.787184086022464
 20
4.9854173070081185
 30
0.0
  0
VERTEX
  8
0
 10
10.251503871648577
 20
5.3810278489437735
 30
0.0
  0
SEQEND
  8
0
  0
LINE
  8
0
 62
0
 10
8.053313611241878
 20
4.101114467920434
 30
0.0
 11
9.787184086022464
 21
4.9854173070081185
 31
0.0
  0
ARC
  8
0
 62
0
 10
8.427686720409648
 20
3.3659479730826614
 30
0.0
 40
0.8249999999999998
 50
116.98682394059811
 51
-158.44347731360685
  0
ARC
  8
0
 62
0
 10
-1.8385e-13
 20
-5.707e-14
 30
0.0
 40
8.250000000000192
 50
14.207160083010425
 51
21.792839916989525
  0
ARC
  8
0
 62
0
 10
8.796596358641201
 20
2.230560852792128
 30
0.0
 40
0.8249999999999988
 50
-165.55652268639324
 51
-80.98682394059809
  0
LINE
  8
0
 62
0
 10
10.848353022251239
 20
1.7194751418150387
 30
0.0
 11
8.925842174732681
 21
1.4157476723496139
 31
0.0
  0
POLYLINE
  8
0
 62
0
 70
0
 66
1
 10
0.0
 20
0.0
 30
0.0
  0
VERTEX
  8
0
 10
11.456529661848508
 20
1.6723398125738433
 30
0.0
  0
VERTEX
  8
0
 10
10.848353022251239
 20
1.7194751418150387
 30
0.0
  0
SEQEND
  8
0
  0
POLYLINE
  8
0
 62
0
 70
0
 66
1
 10
0.0
 20
0.0
 30
0.0
  0
VERTEX
  8
0
 10
13.162696510878472
 20
1.016260531955624
 30
0.0
  0
VERTEX
  8
0
 10
11.456529661848508
 20
1.6723398125738433
 30
0.0
  0
SEQEND
  8
0
  0
ARC
  8
0
 62
0
 10
0.00187531570905186
 20
0.0
 30
0.0
 40
13.20000000000119
 50
-4.4155390883788455
 51
4.415539088378928
  0
POLYLINE
  8
0
 62
0
 70
0
 66
1
 10
0.0
 20
0.0
 30
0.0
  0
VERTEX
  8
0
 10
11.456529661848508
 20
-1.6723398125738433
 30
0.0
  0
VERTEX
  8
0
 10
13.162696510878472
 20
-1.016260531955624
 30
0.0
  0
SEQEND
  8
0
  0
CIRCLE
  8
0
 62
0
 10
0.0
 20
0.0
 30
0.0
 40
3.5
  0
ARC
  8
0
 62
0
 10
-0.00187531570905186
 20
1.55e-15
 30
0.0
 40
13.20000000000119
 50
175.58446091162116
 51
179.0341870987346
  0
POLYLINE
  8
0
 62
0
 70
0
 66
1
 10
0.0
 20
0.0
 30
0.0
  0
VERTEX
  8
0
 10
-11.456529661848508
 20
1.6723398125738447
 30
0.0
  0
VERTEX
  8
0
 10
-13.162696510878472
 20
1.0162605319556255
 30
0.0
  0
SEQEND
  8
0
  0
POLYLINE
  8
0
 62
0
 70
0
 66
1
 10
0.0
 20
0.0
 30
0.0
  0
VERTEX
  8
0
 10
-10.848353022251239
 20
1.71947514181504
 30
0.0
  0
VERTEX
  8
0
 10
-11.456529661848508
 20
1.6723398125738447
 30
0.0
  0
SEQEND
  8
0
  0
LINE
  8
0
 62
0
 10
-8.925842174732681
 20
1.4157476723496147
 30
0.0
 11
-10.848353022251239
 21
1.71947514181504
 31
0.0
  0
ARC
  8
0
 62
0
 10
-8.796596358641201
 20
2.23056085279213
 30
0.0
 40
0.8249999999999993
 50
-99.01317605940191
 51
-14.44347731360682
  0
ARC
  8
0
 62
0
 10
1.4464e-12
 20
-4.7362e-13
 30
0.0
 40
8.25000000000152
 50
158.20716008301105
 51
165.79283991698895
  0
ARC
  8
0
 62
0
 10
-8.427686720409644
 20
3.365947973082664
 30
0.0
 40
0.8249999999999976
 50
-21.5565226863933
 51
63.01317605940195
  0
LINE
  8
0
 62
0
 10
-9.787184086022462
 20
4.98541730700812
 30
0.0
 11
-8.053313611241876
 21
4.101114467920435
 31
0.0
  0
POLYLINE
  8
0
 62
0
 70
0
 66
1
 10
0.0
 20
0.0
 30
0.0
  0
VERTEX
  8
0
 10
-10.251503871648577
 20
5.381027848943775
 30
0.0
  0
VERTEX
  8
0
 10
-9.787184086022462
 20
4.98541730700812
 30
0.0
  0
SEQEND
  8
0
  0
POLYLINE
  8
0
 62
0
 70
0
 66
1
 10
0.0
 20
0.0
 30
0.0
  0
VERTEX
  8
0
 10
-11.246188122270928
 20
6.914666848431336
 30
0.0
  0
VERTEX
  8
0
 10
-10.251503871648577
 20
5.381027848943775
 30
0.0
  0
SEQEND
  8
0
  0
ARC
  8
0
 62
0
 10
-0.00151716227889764
 20
0.00110228291749426
 30
0.0
 40
13.200000000000633
 50
139.5844609116209
 51
148.415539088379
  0
POLYLINE
  8
0
 62
0
 70
0
 66
1
 10
0.0
 20
0.0
 30
0.0
  0
VERTEX
  8
0
 10
-8.297488271752812
 20
8.092575292236427
 30
0.0
  0
VERTEX
  8
0
 10
-10.051502215930087
 20
8.559010930560584
 30
0.0
  0
SEQEND
  8
0
  0
ARC
  8
0
 62
0
 10
-7.42
 20
7.429239530396096
 30
0.0
 40
1.1
 50
142.9126046348556
 51
-45.24306931008909
  0
LINE
  8
0
 62
0
 10
-6.389002405692879
 20
6.39184232127566
 30
0.0
 11
-6.645489311715407
 21
6.648129298909575
 31
0.0
  0
ARC
  8
0
 62
0
 10
-5.805505173185376
 20
6.975071246875279
 30
0.0
 40
0.8250000000000005
 50
-135.0131760594019
 51
-50.44347731360688
  0
ARC
  8
0
 62
0
 10
-2.1538e-13
 20
2.8999e-13
 30
0.0
 40
8.24999999999964
 50
122.20716008301018
 51
129.79283991698978
  0
ARC
  8
0
 62
0
 10
-4.839687201517739
 20
7.676779077603692
 30
0.0
 40
0.824999999999999
 50
-57.55652268639324
 51
27.013176059401868
  0
LINE
  8
0
 62
0
 10
-4.98764348308518
 20
9.786049792656145
 30
0.0
 11
-4.104692970318833
 21
8.051490273198816
 31
0.0
  0
POLYLINE
  8
0
 62
0
 70
0
 66
1
 10
0.0
 20
0.0
 30
0.0
  0
VERTEX
  8
0
 10
-5.130752038280027
 20
10.379025766574605
 30
0.0
  0
VERTEX
  8
0
 10
-4.98764348308518
 20
9.786049792656145
 30
0.0
  0
SEQEND
  8
0
  0
POLYLINE
  8
0
 62
0
 70
0
 66
1
 10
0.0
 20
0.0
 30
0.0
  0
VERTEX
  8
0
 10
-5.034018114831247
 20
12.204426513599643
 30
0.0
  0
VERTEX
  8
0
 10
-5.130752038280027
 20
10.379025766574605
 30
0.0
  0
SEQEND
  8
0
  0
ARC
  8
0
 62
0
 10
-0.00057950442419652
 20
0.00178353122607433
 30
0.0
 40
13.20000000000028
 50
108.76002037589097
 51
112.41553908837918
  0
LINE
  8
0
 62
0
 10
-13.200000000000001
 20
18.0
 30
0.0
 11
-13.200000000000001
 21
0.22249678186805966
 31
0.0
  0
ARC
  8
0
 62
0
 10
-7.42
 20
7.429239530396096
 30
0.0
 40
1.1
 50
-0.0
 51
142.9126046348556
  0
ARC
  8
0
 62
0
 10
-7.42
 20
7.429239530396096
 30
0.0
 40
1.1
 50
-45.24306931008909
 51
-0.0
  0
LINE
  8
0
 62
0
 10
-4.853015732524392
 20
15.906873781202382
 30
0.0
 11
-4.245766397078735
 21
12.500518997121855
 31
0.0
  0
LINE
  8
0
 62
0
 10
-4.353506432181659
 20
42.44871267683738
 30
0.0
 11
-13.200000000000001
 21
18.0
 31
0.0
  0
LINE
  8
0
 62
0
 10
11.0
 20
50.0
 30
0.0
 11
-4.353506432181659
 21
42.44871267683738
 31
0.0
  0
LINE
  8
0
 62
0
 10
11.0
 20
48.0
 30
0.0
 11
11.0
 21
50.0
 31
0.0
  0
LINE
  8
0
 62
0
 10
11.0
 20
48.0
 30
0.0
 11
10.0
 21
48.0
 31
0.0
  0
LINE
  8
0
 62
0
 10
10.0
 20
48.0
 30
0.0
 11
10.0
 21
46.800000000000004
 31
0.0
  0
LINE
  8
0
 62
0
 10
10.0
 20
46.800000000000004
 30
0.0
 11
11.0
 21
46.800000000000004
 31
0.0
  0
LINE
  8
0
 62
0
 10
11.0
 20
45.6
 30
0.0
 11
11.0
 21
46.800000000000004
 31
0.0
  0
LINE
  8
0
 62
0
 10
11.0
 20
45.6
 30
0.0
 11
10.0
 21
45.6
 31
0.0
  0
LINE
  8
0
 62
0
 10
10.0
 20
45.6
 30
0.0
 11
10.0
 21
44.400000000000006
 31
0.0
  0
LINE
  8
0
 62
0
 10
10.0
 20
44.400000000000006
 30
0.0
 11
11.0
 21
44.400000000000006
 31
0.0
  0
LINE
  8
0
 62
0
 10
11.0
 20
43.2
 30
0.0
 11
11.0
 21
44.400000000000006
 31
0.0
  0
LINE
  8
0
 62
0
 10
11.0
 20
43.2
 30
0.0
 11
10.0
 21
43.2
 31
0.0
  0
LINE
  8
0
 62
0
 10
10.0
 20
43.2
 30
0.0
 11
10.0
 21
42.0
 31
0.0
  0
LINE
  8
0
 62
0
 10
10.0
 20
42.0
 30
0.0
 11
11.0
 21
42.0
 31
0.0
  0
LINE
  8
0
 62
0
 10
11.0
 20
40.800000000000004
 30
0.0
 11
11.0
 21
42.0
 31
0.0
  0
LINE
  8
0
 62
0
 10
11.0
 20
40.800000000000004
 30
0.0
 11
10.0
 21
40.800000000000004
 31
0.0
  0
LINE
  8
0
 62
0
 10
10.0
 20
40.800000000000004
 30
0.0
 11
10.0
 21
39.6
 31
0.0
  0
LINE
  8
0
 62
0
 10
10.0
 20
39.6
 30
0.0
 11
11.0
 21
39.6
 31
0.0
  0
LINE
  8
0
 62
0
 10
11.0
 20
38.400000000000006
 30
0.0
 11
11.0
 21
39.6
 31
0.0
  0
LINE
  8
0
 62
0
 10
11.0
 20
38.400000000000006
 30
0.0
 11
10.0
 21
38.400000000000006
 31
0.0
  0
LINE
  8
0
 62
0
 10
10.0
 20
38.400000000000006
 30
0.0
 11
10.0
 21
37.2
 31
0.0
  0
LINE
  8
0
 62
0
 10
10.0
 20
37.2
 30
0.0
 11
11.0
 21
37.2
 31
0.0
  0
LINE
  8
0
 62
0
 10
11.0
 20
36.0
 30
0.0
 11
11.0
 21
37.2
 31
0.0
  0
LINE
  8
0
 62
0
 10
0.9312300618183702
 20
31.892570531442203
 30
0.0
 11
11.0
 21
36.0
 31
0.0
  0
LINE
  8
0
 62
0
 10
-4.853015732524392
 20
15.906873781202382
 30
0.0
 11
0.9312300618183702
 21
31.892570531442203
 31
0.0
  0
CIRCLE
  8
0
 62
0
 10
-3.0
 20
34.0
 30
0.0
 40
1.55
  0
CIRCLE
  8
0
 62
0
 10
-10.25
 20
10.256092904733967
 30
0.0
 40
1.1
  0
CIRCLE
  8
0
 62
0
 10
-7.8
 20
21.0
 30
0.0
 40
1.55
  0
ENDBLK
  0
ENDSEC
  0
SECTION
  2
ENTITIES
  0
INSERT
  2
POCKET002
  8
0
 62
0
 10
0.0
 20
0.0
 30
0.0
  0
ENDSEC
  0
EOF
